/* XPM */
static char *_cec989c9bf34783c92633b6744c6a72qe4aTHCCFwzsnNJP[] = {
/* columns rows colors chars-per-pixel */
"64 64 240 2 ",
"   c #2C3D3F",
".  c #71553A",
"X  c #7A6034",
"o  c #1F365A",
"O  c #213D5A",
"+  c #1C4366",
"@  c #324D6F",
"#  c #3A5869",
"$  c #2E547D",
"%  c #335475",
"&  c #396271",
"*  c #4B5754",
"=  c #5B665F",
"-  c #67684D",
";  c #726A52",
":  c #4D5C6C",
">  c #496977",
",  c #527472",
"<  c #767568",
"1  c #6C6E6D",
"2  c #835C34",
"3  c #AC512B",
"4  c #8C6B3E",
"5  c #C64B20",
"6  c #836B46",
"7  c #827C55",
"8  c #957755",
"9  c #927048",
"0  c #A37F4C",
"q  c #86796E",
"w  c #957967",
"e  c #A77A76",
"r  c #C17B56",
"t  c #74805E",
"y  c #5D897B",
"u  c #768765",
"i  c #668B79",
"p  c #7C8979",
"a  c #9F845D",
"s  c #A78A56",
"d  c #86866B",
"f  c #99846B",
"g  c #888B75",
"h  c #8C9374",
"j  c #84947C",
"k  c #8C9B7E",
"l  c #8A967C",
"z  c #949579",
"x  c #9C8479",
"c  c #AC8464",
"v  c #A8886A",
"b  c #B48867",
"n  c #A6857B",
"m  c #A58775",
"M  c #B68A7B",
"N  c #B78C77",
"B  c #AC947C",
"V  c #AB997E",
"C  c #A79176",
"Z  c #B2947A",
"A  c #B79977",
"S  c #BA946A",
"D  c #CC975F",
"F  c #C49B73",
"G  c #D0AF70",
"H  c #325F8B",
"J  c #3A668A",
"K  c #3D6D94",
"L  c #356C9E",
"P  c #3D719B",
"I  c #3A719B",
"U  c #3A73A6",
"Y  c #3A73A8",
"T  c #3A6FA5",
"R  c #436D8A",
"E  c #526D89",
"W  c #477488",
"Q  c #446D92",
"!  c #437296",
"~  c #43759C",
"^  c #44789E",
"/  c #497797",
"(  c #587699",
")  c #5D7681",
"_  c #4376A2",
"`  c #4579A1",
"'  c #497DA3",
"]  c #5C838E",
"[  c #6C8B84",
"{  c #6D8686",
"}  c #728685",
"|  c #7D8D82",
" . c #6C9685",
".. c #739D8B",
"X. c #789986",
"o. c #7B9C92",
"O. c #768E94",
"+. c #7AA087",
"@. c #7BA39C",
"#. c #8D8F87",
"$. c #8D9D83",
"%. c #84948A",
"&. c #8C9C8C",
"*. c #879784",
"=. c #909E84",
"-. c #919E8C",
";. c #979685",
":. c #8B9A91",
">. c #939E94",
",. c #A78C82",
"<. c #B58B83",
"1. c #A89985",
"2. c #B59A84",
"3. c #B49B8B",
"4. c #BA9B8B",
"5. c #AC9F94",
"6. c #B49D91",
"7. c #86A085",
"8. c #92A186",
"9. c #94A48B",
"0. c #99A68D",
"q. c #99A88E",
"w. c #85A89A",
"e. c #94A393",
"r. c #99A692",
"t. c #9DAA93",
"y. c #9DAC9A",
"u. c #96A69A",
"i. c #9BB593",
"p. c #B4A284",
"a. c #B6A38F",
"s. c #BBA58D",
"d. c #BAAB82",
"f. c #A1AD95",
"g. c #A2AE9A",
"h. c #A6A596",
"j. c #B6A493",
"k. c #BBA593",
"l. c #B6A996",
"z. c #BBA993",
"x. c #BCAD98",
"c. c #B6AC98",
"v. c #A5B19B",
"b. c #A5B398",
"n. c #BCB99B",
"m. c #B3AC89",
"M. c #88ABA5",
"N. c #9AB0A8",
"B. c #BBBBA4",
"V. c #AEB0A3",
"C. c #C69D8B",
"Z. c #C3A689",
"A. c #C6B98A",
"S. c #C2AD95",
"D. c #C3AE9B",
"F. c #C5BC96",
"G. c #C4B29B",
"H. c #C5BB9B",
"J. c #CAB89B",
"K. c #D6BA9B",
"L. c #C3BDA3",
"P. c #CBBBA4",
"I. c #C3BFAB",
"U. c #C7B8A7",
"Y. c #BDC19E",
"T. c #BCC3AA",
"R. c #B0C1B4",
"E. c #CAC595",
"W. c #C6C29B",
"Q. c #CBC59A",
"!. c #CBC897",
"~. c #D2CB9C",
"^. c #D3C699",
"/. c #D9D19D",
"(. c #C6C28E",
"). c #E1D69E",
"_. c #C6C3A4",
"`. c #CAC3A4",
"'. c #CCC5AD",
"]. c #CBCBAD",
"[. c #C7C7A8",
"{. c #D2CCA3",
"}. c #D1C8AB",
"|. c #D8D1A5",
" X c #C6C4B5",
".X c #CCC6B3",
"XX c #CEC9B5",
"oX c #C7C5B8",
"OX c #CAC6BA",
"+X c #CDCABD",
"@X c #C7C9BD",
"#X c #D2CAB5",
"$X c #D8CEB5",
"%X c #D7CFBD",
"&X c #D5CEBD",
"*X c #D4CDBA",
"=X c #D8CFBE",
"-X c #D8CFBD",
";X c #D0C4B3",
":X c #CAD0BB",
">X c #D7D0BE",
",X c #D7D0BD",
"<X c #D7D0BD",
"1X c #D9D0BA",
"2X c #D8D1BE",
"3X c #D9D1BE",
"4X c #D9D2BE",
"5X c #DAD3B8",
"6X c #E3DAA4",
"7X c #BFC9C0",
"8X c #CDCCC3",
"9X c #CECEC9",
"0X c #C5CBC3",
"qX c #D2CEC2",
"wX c #D1CEC9",
"eX c #D9CFC2",
"rX c #CED1C5",
"tX c #CFD0CA",
"yX c #D7D0C0",
"uX c #D5D1C5",
"iX c #D9D2C0",
"pX c #D9D3C1",
"aX c #DAD3C1",
"sX c #D9D2C1",
"dX c #DBD4C1",
"fX c #DBD4C2",
"gX c #D9D7C2",
"hX c #DCD5C3",
"jX c #DDD7C2",
"kX c #DBD4C3",
"lX c #DDD8C6",
"zX c #D3D2CA",
"xX c #DBD5CA",
"cX c #DDDACA",
"vX c #D3D9C5",
"bX c #D5D3D0",
"nX c #E0D9C6",
"mX c #E0D6C8",
"MX c #E1DAC9",
"NX c #E1D7C6",
/* pixels */
"'.'.`.'.'.;X#XXX#X#XXX#X+X;X#X;X#X#X#X#X#X&X*X#X;X#X*X#X#X#XXX#X;X#X#X#X#X*X#X#X#X*X#X#X*X*X*X+X#XXXXX*XOXXXOX.X.X.X.XXX.X X'.U.",
".X'.'.}..X#XXX#XXX#X#X#X#X*X#X#X$X#X#X&X#X&X*X*X*X*X*X-X4X&X&X*X-X&X-X*X&X&X&X*X&X&X&X&X*X*X*X*X*X*X*X*X*X*X*X+X+XXX#XXXXX.X.X.X",
".X;X#X#X;X#X;X*X#X#X*X#X#X#X#X1X*X#X*X4X&X-X&X&X&X&X4X-X,X&X4X1X4X4X-X4X*X4X-X&X*X$X,X*XeX*X<X*X*X*X*X*X*X*X*X#X#XXX*X#X#X.X'. X",
"'.XXXX#X#X#X*X*X#X*X*X#X*X*X#X1X$X*X*X$X&X4XyX4X4X4X,X4X4X-X4X4X-X-X*X$X4X$X4X4X4X4X,X&X*XeX<X*X&XeX&XqXqX*X*X+X*X#X#XXXXX.X.X'.",
".X;X;X#X#X#X;X$X$X;X$X*X$X-X#X$X&X*X1X*X4XsX3X3X4X4X4XsXsX4XsX4X$X3X5X1X4X4X4X4XsXsX,X,X,X,X,X,X,X,XyXyX,X*X*X*X*X#X#X#X#XXXXX.X",
".X#X+X#X*X*X*X;X$X$X#X$X$X$X$X1X$X$X1X4X4X3X3X3X4X4XsXpXpXhXhXsXhXpXhXhXsXsX4XhXkXpXsXsXsXsXsX,X4XyXyXyXyXyX*X*X*X*X*XOX#XXX;X.X",
"}.#X#X*X*X*X*X*X*X*X$X$X$X#X$X$X1X5X5X3X4X3X4XpXsXpXhXhXhXhXhXhXhXhXhX4XhX4XhX4XpXhXpXsXpXsX4XsXsXsXyXyX*X,X*X*X*X*X*X*X#X+X#X#X",
".X;X#X#X*XqX=X=XeX$X-X3X4X1X1X4X3X3XsXsX3X3XpXhXhXhXhXhXlXhXhXlXsX4X4XpX4XhXpXhXpXkXkXpXpXsXsXsXsXsXyXyXyXyX,X*XeX*X*X#X*X*X*XXX",
".X;X;X*X&X$X&X-X=X=X-XsXeX-XsXsX3XhXsXsXpXhXhXpXhXhXhXhXsXxX=XP.1X4X-X3XhXpXhX4XpXhXpXpXsX4XsX4XsXsXyXyX,X&X&X&X#X*X*X#XXX#XXXOX",
";X#X*X*X*X*X-X&X-X-X-XeX4XsXsX3XsXsXhX4XsXsX4XsX4XpXpXpXsXK.Z.Z N J.jXsX4X4XhXhXhXpXhXpX4X4XsX4XpXsXsXyX,X,X,X&X*X*X*X#X#X#X#X#X",
"#X#X#X*X*X-X-XeXeXeXeXsXsX=X=XsXsXsXsXhXhXhXlXxXhXsXhXkXJ.F Z.D.4.w 4.5XhX4XhXhXhXpXsXpXpXhXhXpXsX4X4X,XyX,X,X,XeX*X*X*X*X#X*X+X",
".X#X*X-X*X-X&X-XeXsXsXsXsXsXsX3X-X-X4X;XG.2.s.`.hXhXsXsXA S.2.s.5.#.g z.nXjX4X4XhXhXhXhXhX4XsXpXpXsXsXyXyX,X,XyX*X,X,X*X*X*X*XXX",
"#X#X#X*X&X-X-XeXsXsXsXsXsXsXsXsXeX-XP.5.A N C 8 f I.MXP.C.Z.,.I.B.,.1.d.4XjXhXhXhXhXhXkXpXhXhXpX4XpX4X,X,X,X,X,X,X,X*X<X*X*X*XXX",
"}.#X#X*X-X-X4XsXuXsXsXhXNXsXhXhXhX$X.Xh.A A 2.m 3 9 hXC.F Z U.zXx.p.V Z.hXpXhXpXhXhXhXkXhXpX4X4X4X5X,X,X,X,X,X,X,X*X<X*X*X*X&X+X",
"#X#X*X1X&X&XsXsXsXsXxXsXxXsXsXsXxX'.OXx.Z A 5.N 5 3 p.N m P.uX`.d.V p.1XlXhXlXlXlXvXhXhXhXpXhXpXpXpXpXpXsXsX,XpX,X,X,X1X#X<X&X+X",
";X#X#X-XeXsXsXsXsXkXsXhXhXsXhXsXmXU.S.;X3.v A F 0 . ; q a p.0.#.;.m G `.[.<XNXkXxXlXkXhXlXhXhXxXhXhXxXkXkXkXpXyXyXyX,X<X<X*X*X*X",
"#X#X#X-X4X-XsXyXsXxXhXhXxXhXxXhXhXXX,.j.v D G s 4 < - 0 0 8 < : = : ) h.i.T.MXkXkXkXvXkXkXkXhXhXhXlXkXpXpXpXsXsX,X,X,X*X1X<X&X*X",
"#X#X&X4X4XsX4XsXsXkXxXhXxXhXhXhXeXcX5.; G G s . 8 1 # ; f 3.1.;.O.( / E y .XmXhXkXlXxXxXvXkXhXhXhXpXpXpXpXyX4X4X,X1X,X,X#X#X#X#X",
"#X#X*X,X,XsXsXsXkXhXhXhXhXpXhXsXhX_., # t - O = N 1 q ; q #.h.U.K.K.^.,.i :XxXhXlXlXlXvXlXkXhXlXkXvXpXlXkXkX4XpXpX,X,X,X<X#X*X#X",
"#X#X$X#X,XyXyXsXsXhXxXhXhXhXsXhX$XE.b.E O @  .V 4.1 w G 6X6X).|.|.^./.9.p ].cXkXcXvXlXkXlXlXhXvXlXlXlXkXhXhXpXpXpX4X,XyX<X<X*X<X",
"#X$X*X$X,X4X-XsXkXkXxXxXhXgX4X$X!.!./.{.n.W.~.K.K.G.g S ~.~.~.~.~./.!.g l XXcXlXxXlXlXvXlXlXlXlXlXkXkXkXpXpX4XpX,X,X<X,X<X*X*X+X",
"#X#X#X*X&X4XsXsXsXkXhXhXhX4XlXn.h k j p j j V A Z Z <.q [ [ [ [ } %.p d f ].lXkXlXlXcXcXlXlXlXgXlXpXkXkXhXpXpXpXyX,X,X,X*X<X1X*X",
";X$X$X*X,X,XyXsXsXxXhXpXpX4XNXB.p k j *.*.p ;.z.3.1.e q [ } } } } } y d f {.cXlXcXcXlXNXnXlXlXlXlXlXvXxXlXzXlXpXpXpX,X,X1X*X*X+X",
"}.#X#X,XyXyXyXsXsXkXhXlXpXpXNXT.k 8.&.8.8.*.1.S.x.c.l.,.| *.%.%.%.7.i h v {.cXkXlXhXcXlXlXlXlXlXlXlXlXlXlXlXkXkXlXpXkXyX,X,X1X*X",
".X#X$X#XyXsXyXkXkXkXkXkXhXpXnXn.j 8.8.q.&.%.5.s.s.x.3.x *.t.9.&.7.>.i h v {.cXkXlXlXlXcXlXnXnXlXlXlXlXlXlXlXjXlXhXhXhXpX4X4X*X*X",
"#X$X$X*X,XyXpXyXkXkXkXxXhX4XnXB.k k 8.8.e.:.j.z.z.l.<.x 8.q.9.e.:.>.[ g c {.cXcXcXcXcXcXlXnXnXlXlXjXgXgXhXjX4X4X4X4X4X4X4X4X*X1X",
"}.#X$X&XyXpXyXkXhXxXkXxXhXhXjXT.j 8.7.8.8.%.c.S.j.3.M x 9.f.r.r.e.:. .l c {.MXMXnXnXMXMXnXnXnXlXlXlXnXhXhX4X4X4X4X4X4X4X,X,X,X,X",
"$X$X*X$X,XpXyXkXhXhXhXhXhX4XNXn.k 9.9.9.9.&.l.S.j.a.<.m 9.f.t.r.e.e. .g b |.MXlXnXMXMXnXnXnXnXnXnXlXlXlXjXNXpX4X4X4X4X4X,X,X*X*X",
".X$X#X,X,X4XsXsXhXxXxXhXhXpXnXY.k 8.9.9.q.&.l.S.a.a.M n 8.t.t.u.e.e.X.z b |.cXcXMXnXMXMXMXnXMXnXMXcXlXlXlXlXlXlXlXhXhXpX4X4X,X,X",
"}.#X#X<X,XpXpXsXsXhXhXhXhXhXlXT.k 9.9.q.q.e.l.D.a.3.M n 9.f.y.y.e.e.X.z b |.MXcXMXnXMXMXMXcXMXMXlXcXcXlXlXlXlXkXkXhXhXpXpXsX4X,X",
"}.#X#X1X,XyXsXsXsXxXkXpXsXpXlX_.k 8.q.q.9.9.l.G.a.2.M n r.t.y.g.y.u.o.z A 5XMXMXnXnXnXnXMXMXMXnXcXcXcXlXnXhXnXhXhXlXhXhXpXsX4X,X",
"#X$X$X<X4X,XpX4XsXhXhXsXsX4XNXW.k 8.7.9.9.9.l.G.j.3.M n t.t.g.y.y.e.X.h V gXMXMXMXMXMXnXMXMXnXnXcXlXlXlXlXhXlXlXhXhXhXpXpX4XsX,X",
"}.$X#X$X-X-XsXsXsXpXhXpXpX4XhXW.k 8.8.9.0.-.j.G.j.3.M n u.f.g.g.y.u...l N 5XcXcXMXMXMXcXcXcXMXcXcXcXcXcXcXcXlXcXlXhXsXsXsXsX3X4X",
"#X$X-X-XsXsXhXuXhXhXhXlXlXhXnXW.k 9.9.q.9.:.l.D.k.3.M M t.f.g.y.t.u...l B 5XcXcXnXNXnXjXnXcXlXjXcXlX4X5XpX4X5X4X4X4X5X5X$X$X$X$X",
"F.E.W.W.^.Q.Q.^.{.Q.~.{.^.~.^.(.8.9.9.q.t.e.l.G.k.6.<.,.t.t.f.g.t.u. .h 1.!.{.{.{.{.{.{.~.~.!.!.!.E.~.!.E.E.E.W.Q.Q.Q.E.E.(.(.A.",
"L.`.[._.W.`._.'.'.'..X}.[.].{.E.k 9.9.q.9.-.l.D.k.3.M ,.t.t.t.y.y.y. .h V rXbXzXzXzXzXzXzXzXvXtXuXzX9XvX9X8X8X9XrX0X9X0X0X0X0X0X",
"8X*XqX8XqX9XqXqXzXwXqXwXuXyXuX_.k 9.9.9.9.9.j.D.k.4.<.3.t.f.f.g.y.g. .g V rXbXtXbXbXbXbXzXzXzXzXzXwXwXwX9X9XwX9X9X9X9X9X8X8X8X8X",
".X@X+X+X+X+X8XqX8X*X*XqXqXqXhXP.k 9.9.9.9.-.l.S.k.6.<.6.t.f.f.f.y.g. .d B :XtXtX9XbXtXtXzX9XzXtXtX9X9XtX9XwX9XwX9X8X9X9X9X0X9XI.",
" XOX+X+X+X8X8X*X8X8X8XqXqXqXyX`.k 9.q.q.t.r.j.S.k.6.C.6.t.f.f.f.v.y...d V 0XtXtX9X9XtXtX9X9XtX9X9X9X9X9X9X9X9X9X8X9X9X9X9X0X9X0X",
" XOX@X+X+X+X+X8X+XqXqXqXqXqXqX`.k 8.9.q.t.r.k.k.j.6.k.6.f.f.t.f.f.g...u 1.tX9X9X9X9X9XtXtX9X9X0X9X0X0X9XwXbXwX9X9X0X9X9X9X9X0X8X",
"OXOXXX*X8X*X8X8XqXqXqXuXuX+XxX`.8.q.0.q.q.0.d.Z.j.j.k.j.f.h.f.f.g.g...d ;.zXcXzXtXvXzXbXzXvXzXvXbXtXzXbXvXtXrXvX9X9X9X0X9X8X8X0X",
".XOX@X8X+X8X8XqX*XqXqXqXuXyXuX`.0.q.q.q.q.0.s.k.j.z.D.j.q.f.f.f.g.v.+.d g o.@.@.@.w.@.M.w.w.M.M.M.M.M.M.M.i.0XvX9X9X9X9X9X9X8X8X",
" X@X@X8X+X8X+XqXqXqXqXqXuXrXyX`.8.q.q.f.q.9.s.s.s.x.x.j.r.f.f.f.b.b.+.d : J J K K K K K I I P Q P U I P K ..M.N.V.7XtX9X9X9X8X8X",
"XX:X+X*X+X8X*XqXqX+XuXuX+X<XyX`.8.t.q.f.t.0.s.s.z.x.D.l.r.q.q.f.g.b.+.p J & J R Q / / / / ~ ~ ` ' ^ ` ` ' Y > , :.9XbX9X9XwX9X8X",
"I.OX+X+X8X+X8X&XqX<XuXqXqXqX-X'.8.q.q.f.t.r.j.S.G.x.G.x.t.q.f.f.t.b.p i & & & J Q Q Q ! Q Q ! ~ ~ / ~ ` ` ` ^ y V.wXwXwXwXzXwXqX",
"8X;X+X+X+X8X+X8X+XuX:XeXqX*XeX}.0.0.t.f.f.r.z.J.U.J.J.x.q.t.q.t.f.f.p , % J J K K K ! P P ! ~ _ ~ ` ` _ Y ] ! X.:XqXzXwXwXwXqXqX",
"OX+X+X+X+XqXqXqXqXqXqXuXqXeXeX}.0.t.b.f.g.t.x.P.J.H.J.d.r.f.f.t.t.f.X.# $ J I I ~ ~ ^ ^ ` ` ` ` ` ` ~ _ ~ ^ ! u.rXrXrX9XqXzXqX8X",
"XXOX+X+X+X+XqX+X+XqXqXuXeXuX=X}.0.f.f.f.v.g.G.H.J.F.F.Z.q.f.f.f.t.b.X.@ $ J I K ~ ~ ~ ~ _ _ ~ ` ` ^ ~ I W ] / i +XrXzXqXwXqX8X8X",
"OXOX+X*X+XeX+XqXqXqXqXeXqX*XuX`.8.e.7.9.e.r.d.F F F D e y.y.t.i.t.v.o.+ H L L I T T T U Y Y Y U Y U ~ I R m.N.N.:XuXqX9XwXqXqX+X",
"OXOXOX+X+X+XqX+XI.eXqX*XeXqXqXXX8.| p t t u ; 6 6 6 2 X ; ; - - - - *   # # # # # & > > > , > R R W W R { '.rXtXrXuXwXzXzXqXuX+X",
"XXOXXX8X+XqX+X+XeXqX&XqX+XqX8XqX,X*XXX#X.X.X].].]..XQ.`.W.`.W.`.E.F.F.`.Y.F.H.L.W.W.W.`.'.'.`.L._.B.T.B.].8X8X+X8XuX8XuXuX8X8X+X",
"+XOXOX+X+X+X+X+XqX8X+X+X+X*XqX+X+X8XwXwXuXqXuX8XrXuXqXvXzXzXzXxXzXzXbXzXzXzXzXzXzXzXzXuXzXzXzXzXzXzXuXzXuX+X+X+X+X+X+X+X+X+X8X+X",
"OXXXOX+X+XqX8X8X8X*X*X8XuX<XuX8XqXqXqXsXzXsXsXuXkXzXsXxXuXuXuXkXzXuXuXuXvXuX8XuXqXuX8XuXqXqXtX8X8X8X+X8X+X+X8X8X+X@X@X@X@X@X8X@X",
".X+XOX+X+X8X&XqXqXqXqXqX<X8XuXqXeXqXqXuXsXzXsXxXuXuXxXuXsXxXzXsXsXzXsXqXpXpXuXrXuXuXuXuXsXwX8XzXzX8X8X8X+XuX<X8X+X+X+X+X+X+X8X@X",
"oXOXOX+X+X+X+XqX8X&XqX&X*XqX&X*XuXuXqXqXqXzXuXuXuXuXuXuXzXuXxXzXkXzXzXzXzXzXpXzXzXzXuXuXuXuXuXuXqXuXrXuXuXqXqX+X8X8X8X8X+X8X8X+X",
"OXOXOX+X+X+X+X+X8X&X*XqXqXeXqXeXuXqXsXzXqXsXuXuXxXuXkXzXuXxXuXxXuXxXuXkXzXxXvXzXkXzXpXuXuXuXuXuXuXuXuXqXuXuXuXuXuX+X8X8X+X8X8X@X",
"OXOXOXOXOX+X+X+XOX8XqXqXqXqXqXeXqXqXqXuXuXeXqXzXsXuXxXuXxXuXuXuXzXsXuXuXsXzXzXzXzXxXzXuXuXuXuXuXuXuXuXuXqXuXqXqX8XuX8X8X+XrX+X+X",
"I.OXOXOXOXOX+X+X+X+X+X+X+XqX8XqXqXqXqXqXqXqXeXuXwXqXeXuXuXuXuXsXpXzXuXuXzXuXzXzXxXuXuXzXqXuXuXzXrXuXuXqXqXqXqXqXrX+X*X8X+X8X+X+X",
"OXOXOXOX+X+X+X+X&X+XqXqXqX+X+XeXqXqXqXqXqXuXuXuXuXqXuXuXuXuXqXuXzXuXuXuXuXuXsXqXuXuXuXuXzXuXzXqXqXzXzXqXqXuXqXqXqX+X8X+X+X+X+X+X",
"I.oXOXOXOXOX+X+XOX8X+X+X+X8XqXqXeXqXqXqXqXzXuXqXqXsXzXuXuXuXeXxXkXuXzXsXuXuXuXuXuXuXuXuXsXqXqXuXuXuXqXuXqXqXqXqXqXqXqX8X8X8X8X+X",
"OXOXI.0XOX8XOX8X+X+X8XqX+X+XeX+XqXqXqXqXqXqXqXqXuXuXqXuXqXqXuXuXeXxXuXuXuXzXqXuXuXuXuXuXsXzXqXuXqXqXqX8XqXqXqXqXqXqX8X8X0XqX8X@X",
"I.0XoXOXOXOXOXOXI.+X+XqXqXqXqXqXqXqXqXqXqXqXeXqXqXqXqXuXeXzXzXuXqXuXuXqXuXsXuXuXzXsXuXqXqXqXqXqXuXrXqXqX8X*X8X8X8X8X8X9X8X8X+X@X",
"I.9XI.0X9X+X8XqXeXqXwXwXqXqXqXqXbXqXeXbXuXqXeXqXqXqXsXzXeXqXuXqXsXzXuXuXwXqXzXuXqXuXwXqXzXqXqXzXqXqXqXqXqXqXqXqX8X*X8X8X+X+X+XOX",
"I.I.I.I.I.I.I.I.8XI.I.8XI.8XI.I.I.OXOXI.OX8X+X+XqX+X+X8X8X+XqX8X*XqXqXqXqXqXqXqX8XqXeXqXqXqX8X8XqXqXqX8X8XqX8X8X8X8XqX8X+X@XoXOX"
};
