/* XPM */
static char *a501da542881476ff2d4815118ce9782UjPna89tX6PcSMus[] = {
/* columns rows colors chars-per-pixel */
"64 64 245 2 ",
"   c #544E3E",
".  c #313D44",
"X  c #37454B",
"o  c #3B4A54",
"O  c #3E5458",
"+  c #3D5A64",
"@  c #495348",
"#  c #465858",
"$  c #545B54",
"%  c #555344",
"&  c #6B5D4D",
"*  c #4C655C",
"=  c #586351",
"-  c #76634B",
";  c #766A52",
":  c #7C7457",
">  c #636E5F",
",  c #425562",
"<  c #465D6C",
"1  c #465C67",
"2  c #4B646B",
"3  c #556869",
"4  c #567266",
"5  c #4C6674",
"6  c #526D74",
"7  c #566E78",
"8  c #5A737A",
"9  c #63747C",
"0  c #677A78",
"q  c #717971",
"w  c #866B55",
"e  c #8F785D",
"r  c #987966",
"t  c #897961",
"y  c #A37E6C",
"u  c #A77A66",
"i  c #AE7F71",
"p  c #A36F59",
"a  c #68857B",
"s  c #798779",
"d  c #73927A",
"f  c #70846A",
"g  c #5F8066",
"h  c #888569",
"j  c #9A856A",
"k  c #919078",
"l  c #A5816E",
"z  c #A8826F",
"x  c #A58473",
"c  c #AA8673",
"v  c #AB8976",
"b  c #AE8D7A",
"n  c #B38D7A",
"m  c #B68876",
"M  c #AB9879",
"N  c #B5917E",
"B  c #B8947D",
"V  c #AA8B6F",
"C  c #B7A278",
"Z  c #C28F7D",
"A  c #5A7986",
"S  c #6C7C83",
"D  c #677B85",
"F  c #737D82",
"G  c #7B7F82",
"H  c #697E90",
"J  c #5E818A",
"K  c #698586",
"L  c #768184",
"P  c #7B8585",
"I  c #778989",
"U  c #76968A",
"Y  c #688894",
"T  c #778C96",
"R  c #789999",
"E  c #6D938F",
"W  c #7B9CA6",
"Q  c #6E91A2",
"!  c #7EA2AB",
"~  c #878A88",
"^  c #8C938C",
"/  c #87968B",
"(  c #96978A",
")  c #879996",
"_  c #959D94",
"`  c #978D87",
"'  c #A99787",
"]  c #BB9583",
"[  c #B79886",
"{  c #98A48B",
"}  c #88A395",
"|  c #94A296",
" . c #95A39B",
".. c #9BA59C",
"X. c #9DAA9E",
"o. c #96A796",
"O. c #93A888",
"+. c #ADA98B",
"@. c #A5A899",
"#. c #A8B598",
"$. c #B5AE8F",
"%. c #899AA4",
"&. c #929EA8",
"*. c #87A2A7",
"=. c #9DA9A1",
"-. c #99A7AA",
";. c #8BAAB4",
":. c #95B4BE",
">. c #9CB6BD",
",. c #9CB9BE",
"<. c #9BB3B4",
"1. c #97B1B4",
"2. c #A3ADA2",
"3. c #A7AEA6",
"4. c #A4B1A4",
"5. c #AAB7A8",
"6. c #B5B9A8",
"7. c #A3BABD",
"8. c #A6B7B7",
"9. c #B5BCB3",
"0. c #BEAAA0",
"q. c #C39A88",
"w. c #D9AC9C",
"e. c #CEB290",
"r. c #E1AC9C",
"t. c #DBAEA1",
"y. c #C9B7A6",
"u. c #DAB5A7",
"i. c #D6BDB3",
"p. c #CEACA2",
"a. c #E4B1A6",
"s. c #E5B5AB",
"d. c #E6B8AC",
"f. c #E9BCB3",
"g. c #E6BDB5",
"h. c #E2AEA2",
"j. c #BBC7AC",
"k. c #BAC6BA",
"l. c #ACC2B1",
"z. c #D6C59C",
"x. c #C3C7A8",
"c. c #C2CBBB",
"v. c #C5C9B5",
"b. c #DBC5B7",
"n. c #C9D3B8",
"m. c #D9D8BA",
"M. c #DACCA6",
"N. c #E3CEAD",
"B. c #E8D7AA",
"V. c #E4C2B4",
"C. c #EAC1B6",
"Z. c #E6C4BA",
"A. c #EAC4BC",
"S. c #E9C9BC",
"D. c #E6D5B7",
"F. c #F1DEAD",
"G. c #E5E2BA",
"H. c #F6E6B9",
"J. c #DBE1BE",
"K. c #9DB8C1",
"L. c #98B6C1",
"P. c #A4BDC0",
"I. c #AEC1C1",
"U. c #B8C8C3",
"Y. c #BED2C8",
"T. c #C5CEC6",
"R. c #C9D5C7",
"E. c #DBDBCC",
"W. c #D7D6C7",
"Q. c #CCD7D3",
"!. c #D4DDD1",
"~. c #DCDDD1",
"^. c #D2DFD8",
"/. c #ECCBC3",
"(. c #E7CBC4",
"). c #E4DDCC",
"_. c #ECDACB",
"`. c #E8D6C6",
"'. c #F1D9CB",
"]. c #E3DDD3",
"[. c #ECDED2",
"{. c #F1CDC7",
"}. c #DAE1C6",
"|. c #DCE2D6",
" X c #DEE6DC",
".X c #DEE8DB",
"XX c #EBE4CC",
"oX c #E8E5CA",
"OX c #F4E6CC",
"+X c #FAEBCB",
"@X c #F6EAC7",
"#X c #E3E2D4",
"$X c #EDE5D5",
"%X c #E5E9D3",
"&X c #EEE8D6",
"*X c #E1E6DB",
"=X c #EEE6D9",
"-X c #E3EADE",
";X c #EEE9DA",
":X c #F1E6D5",
">X c #F3E9D6",
",X c #F9ECD5",
"<X c #F1E6DA",
"1X c #F3EBDB",
"2X c #F2E9D9",
"3X c #F4EBDA",
"4X c #F6EADA",
"5X c #F5ECDB",
"6X c #F6EDDB",
"7X c #F2EADD",
"8X c #F4EBDC",
"9X c #F3ECDC",
"0X c #F5EDDC",
"qX c #F6EDDC",
"wX c #F7EDDD",
"eX c #F7EEDD",
"rX c #F6EFDF",
"tX c #F5EEDD",
"yX c #F4ECDB",
"uX c #F8EEDD",
"iX c #F9EEDD",
"pX c #EDF1DE",
"aX c #F7F0DE",
"sX c #F6F0DD",
"dX c #F8F0DF",
"fX c #F9F1DF",
"gX c #FAF1DE",
"hX c #FDF2D4",
"jX c #FCF0CE",
"kX c #DEE6E1",
"lX c #DFE8E1",
"zX c #E1E7E1",
"xX c #E4EBE2",
"cX c #EAEEE3",
"vX c #F6EDE1",
"bX c #FAEEE2",
"nX c #E7F0E4",
"mX c #EAF1E4",
"MX c #EDF3E9",
"NX c #E7F1ED",
"BX c #F5F1E2",
"VX c #F9F1E0",
"CX c #FBF2E2",
"ZX c #FDF5EA",
"AX c #FEF9EA",
/* pixels */
"=X=X:X2X>X2X2X2X7X0X0X0X9X0X0X9X7X9X2X7X5X4X5X5X0X0X6X6XiX0X5X0XiX5X0XaX0XaX0X0X5X5XsX5XsX9X0X9X9X7X7X5X&X&X=X=X$X$X$XXX$X$X].$X",
"=X=X=X=X:X=X&X>X2X2X2X2X7X7X5X9X0X0X0X7X2X4X5X5X0X6X0XiX6X0XiX5X0X5XaXaXaX0XaXaXaXaX5X9X9X9X9X2X9X0X7X2X=X&X&X=X&X$X=X).).$X#X[.",
":X$X:X2X<X>X<X4X4X4X2X4X4X5X4X2X4X5X7X0X4X9X5X5X5X5X5XiX5X5X0X5XiXiXdX0XdX0XBXdX0X5X5X0X9X5X>X0X4X2X7X$X$X$X$X=X&X&X#X$X$X$X$X[.",
"$X=X:X=X<X2X2X2X2X5X2X4X0X5X5X0X5X5X4X7X9X5X5X5XdX0X0XdXiX0XiX4X0X0XvXiXbXBX0XaXaX0XiX0X5X$X>X=X<X$X=XXX$XXX).$X$X).).=X$X#X[.#X",
"$X$X<X<X2X2X2X>X2X2X4X4X5X5X5X4X5X5X0X4XwX6XiX0X6X6X6XiXiXiXiXiXiX0XiX0X0X0XaXaXaXaX5X5X5X4X>X4X2X>X9X&X$X=X=X<X$X$X$X$X$X[.[.=X",
"=X>X2X2X2X2X4X4X4X4X4X6X5X0XiX0X5X5X4X5X6X6X4X5XiXiXiX6XiXwX0XiXiXiX0X0X0XiX0XaXaXaX0XdX0XaX0X5X2X2X9X2X9X2X2X2X7X;X$X#X#X$X#X].",
"=X<X7XvX2X5X5X4X5X5X6X6X5X6X5X0X5X5X5X5X4X4X0X5X4XiX0X0XwXiXiXiXiX0X0XiXiXdXdXdXaXdXaXaXBX0XaX0X0X9X9X7X>X7X2X;X;X=X=X=X;X#X#X$X",
"<X2X7X2X5X5X5X5X5X5X6X6X6X0XiX6X0XiX0X0X5X0X0XiXiXaXdXiXiXiXiXbXdXdXdXdXdXiXdX6XiXaXaXdXdXdX0X0X5X9X9X9X9X;X7X;X7X;X=X=X=X=X[.$X",
"2X7X7X2X0X4X4X4X4X4X4XiX4X4XwXwX0XbX0X0X0XdX0XiXdXdXCXaXCXiXiXdXdXdXdXdXCXCXaXdXdXdXaXaXaX0XaX0X0X9X9X9X9X9X7X2X<X;X=X=X$X$X#X=X",
";X0X7X0X5X4X6X6X6X6X6XiX6X6XwXwXiX0XaXBX0XCXCXdXCXBXvXbXvXBXbXiXdXdXiXdXgXdXiXBXdXdXdXaXaXaXBX0XaX5X5X9X9X9X9X2X<X<X>X=X$X$X$X$X",
"vX7X9X0X4X4X0XiXwX6XwXwXiX6XwXvXiX0XwX7X0X0X0XdXiXdXdXdX0XCXdXaXCXiXdXdXVXfXfXdXfXCXVXVXdXCXdXaX5X5X5X9X2X9X5X2X<X2X=X&X&X$X$X$X",
";X7X7X4X6X0X5X4X6X6XwXwX6X5XiX0X7X7X0XvXaXaXaXiXCX0X0XvXBXvXBXvXvXiXiXdXVXfXVXCXCXVXVXVXCXdXdXdXaX5X5X0X2X0X5X2X2X2X=X=X$X$X$X$X",
"7X7XvX7XiXiX5X0X6XdX5X5XdXaX2X#X!.T.^.cXaXdXBX9X9XvXvXvXaXvXvXBX0XCXiX6X6XCXdXdXfXfXBXVXVXdXCX0XsX5X5X5X0X5X2X5X>X<X2X&X&X$X$X$X",
"7XvXvX0X5X0XiXaXiX5XdXdX9XE.Y.I.7.7.P.Q.|.#X9XiXCXCXZXZXAXCXCXBXiX5X7XD.C.:XZXdXfXVXBXVXiXaXdX0X5X5X5X2X2X4X5X2X2X>X>X=X=X$X$X$X",
"9X9XvX0XiXiXiX5X6XdXdX#XT.I.P.>.,.7.;.>.Q.9.5.9.c.j.#.{ #.#.#.x.$X;X(.a.A.V._.AXVXVXVXVXbXbX0X0X5X5X5X2X4X4X2X2X;X&X:X=X$X$X&X$X",
"9X0X0XaXdX4X>X>XdX4XE.U.P.7.>.L.:.:.*.Y I 9 # * * g O.X.5.j.j.b.7Xg.a.C.V.S.t.b.%XoX&XhXCXBXvX0X0X5X>X4X7X4X5X4X:X>X>X;X;X$X&X&X",
"0X0XdXsX,X>X4X5X%XR.U.P.K.L.:.:.;.T A 3 * O 4 a ) l.n.}.pXpXvXbXS.a.f./.(./.(.g.~.zX|.oXG.oXaXVX0X4X4XOX>X4X4X4X2X:X:X&X;X=X=X&X",
"9X9X5X5X>XiX>X~.R.I.7.>.L.L.:.! Y 6 2 6 6 a E I L =.l.j.}.;XcXD.h.{././.{.(.g.{.V.*XNXxX.XJ.G.oX5XvX2X>X>X>X4X:X>X2X>X=X=X=X$X=X",
"5XaX5X5XiX#X!.Y.I.K.L.L.L.;.Q J 6 < 6 K I P a L H S %.9.-X0X_.>XN.f.{.A.A./.g.(.(.i.xXxXnXxXkXW.G.XX9X7X6X4X>X2X2X2X>X>X&X$X&X=X",
"5X0X5X5X).R.U.8.K.K.L.L.;.Y A < 2 D I U P F H D D 6 T zXBX`.,XCX>Xd.C./.Z./.{.g./.f.b.xXxXxXxXxX|.J.G.4X7X>X2X>X>X:X:X=X&X&X>X=X",
"5X0X7X|.R.U.8.>.L.L.;.! Y A < 6 I ) ~ I I L S 7 5 %.cXbXD.,XZXbXbXOXd.Z.{.A.(./.s./.g.].xXxXxXzXzX-X}.m.$XaX2X>X=X>X:X>X&X&X2X=X",
"6X9X!.T.I.7.K.L.L.L.! Y 7 , A ~ ^ ~ F L P F 9 5 T cXbX(.'.bXiXbXiXbX0XZ.A.A.g.(.A.f.A.A.].xXzXxXzX.XxX|.n.oX0X2X<X<X:X&X:X=X&X&X",
"$XE.Y.l.8.>.K.,.L.W J 5 , S ) ^ I L F F S D 5 &.vXAXbXN.CXZXCXbXiXbXCXvXg.A.A.f./.A.s.A.d.~.xXzXxXlXzXzX|.n.oX5X2X>X>X=X>X=X;X:X",
"W.R.9.<.>.,.L.:.! H < 1 0 ^ ) ~ L L F S 9 < -.ZX7X(.<X6X`.CXCXbXbXbXbXCXbXA.A./.A./.A.f.C.p.~.NXkXzXlXkXxX|.n.OX<X;X2X:X=X:X;X&X",
"R.k.<.>.K.P.L.;.H , , D ) ^ ~ P G F S 7 < &.ZXbXp.u r 0.b.`.AXCXbXbX<XbXbX4Xg././.f.{.s.s.s.p.].xXzXzXkXzXxXn.m.7X<X2X;X:X=X=X&X",
"U.7.>.7.7.>.;.Q , X 8 ^ ` ~ P F F D 8 < %.ZXvXp.z z p r y.W._.CXbXbXbX<XbXbX4X/././././.g.f.s.i.zXxXzXxXzXkXkXn.XX4X&X:X=X>X=X=X",
"9.<.>.8.>.:.! 5 . 2 / ^ ~ ~ F G 9 8 < ) ZXvXa.u ' i e ] [ b.W.`.bXbXbXbXbXbXZX'.f.g.A./.{.f.s.t.i.zXlXzXxXkXkX!.m.4X<X:X=X&X&X&X",
"D.y.8.1.P.:.A o o S ` ~ ~ P F 0 9 5 2 ].ZX_.p m m v r i v ] b.b.:XbX<XbXbXvXbXbX`.f./.A././.s.h.p.(.lXkXzXkXkXkXR.oX4X=X$X:X&X=X",
"5XOXz.6.I.} 5 . 3 / ` ~ ~ F F 9 7 5 D 9.OXbX' w ] ] y r c x [ W.7Xm.bXvXvXvXvXbXbX[././.A./.g.s.a.s.(.lXlXlXkXkX!.m.2X=X&X=X&X=X",
"9XsX>XB.+.Y , X a ` ^ ~ G F 9 8 5 1 H _ y.4XZX' e i i y b c b [ (.b.S.ZXvXvXvXbXZXbX'.C.{.g./.g.w.w.u.`.lXkXkXkX|.c.:X=X>X=X2X=X",
">X5X>XF.+.A X @ k ' ~ L q 9 9 7 2 @ F _  .8.].ZX0.r y ' b ] ] b b b.y.'.bXvXvX<XbXbXbX'.g.(.g.f.d.r.t.s.(.kXkX XkXn.oX>X$X=X=X=X",
"9X5XOXF.$.5 X 7 9.@.r 0 9 7 6 5 , # ~ _  . .3.).ZX6.p i n v ] N n i p.p.[.vX<XvX7X<XbXZX'.s./.f.d.f.r.h.Z.(.kXkXlXT.m.>X$X=X=X>X",
"4X4X@XF.' , X Q ~.].v.~ > 3 6 2 # # ^ |  . .=.2.W.AXy.l B n n N [ v m p.y.4XvXvXvX[.<XbXbX{.g.A.h.d.a.a.d.a.E.kXzXT.n.,X%X=X&X>X",
">X>X@XF.( , o &.xXcXcX)._ 3 3 2 # * ( |  . .=. .3.#XZXy.y B N c x v b m p.b.6XvX<X<X<X<XvXZX{.g.C.w.s.a.h.b.]. X-XR.v.5X:X>X;X;X",
">X6X@XB.` o o *.xXcX-XcX#Xo.# * O @ ( | | | ....=.5.W.<XS.] Z n r n n ] q.u.[.vXvX[.<X<X<XbXbX{.f.r.t.d.g.#X*X.XxXT.x.,X$X=X&X;X",
",X,XOXH.' , , &.-XcXcXcXcXcX9.3 @ @ ( |  . .....=.2.5.R.BX).N m v y v b q.n i.vXbX<X_.vXbX<XbXbX'.s.a.d.W.#X-XzXxXT.j.sX&X=X;X2X",
">X>XOXH.$., , ) |.;XMXxXcX-XBX|.P X q @._ | o...=.2.2.=.R.CX'.N m c x [ ] c i (.$X0X7X$XbXbXiXiXwX{.a.b.-X*XzX-XxXk.x.5X$X;X2X2X",
"OX,XOXH.e.1 , D ^.*XxXmXnX;X-XmXnX .q 5. .| _  . .2.=.=.2.n.CX:Xy y v b ] ] i ] b.(.bX$X[.4X4X4X:XXX).|.-X-XzXkX.X5.x.4X&X>X;X9X",
",X,X,X+Xz.$ O < U.-XcXcXcXnXnXnXcXmXW.3._ @.@...o.X.=.=...=.9.vX_.y y [ ] v x c q.i.'.bX[.'.4XiX_.b.;XlX.X XzX X|.o.m.>X;X2X2X&X",
"4X6X>X,XB.q O + ) -X-XcXcXmXcXmXcXxXBXcXv...( X.3.4.X...=.2.@.6.>X).r m v y v y u q.'.:X4X<X:XXX).#XxX.X.X*X X XY.} oX=X:X7X2X2X",
",XwX6X,X@X' # 2 5 T.-XxXnXxXnXnXmXxXnXnXMXcXv.( _ 5.5.#...=.4.=.@.&XE.j c z c v y y t.$X4XwX_.).*XzX-X*X.X.X.X.Xo.O.+X$X;X&X>X&X",
"6XiXiX4X,Xz.> O 5 K -X-XnX-X-XnXmXMXnXnXnXnXMXmXW.5.@.5.5.2.=.4...@.].~.` b r v l r y u.ZX[.).;X-XzX.X.X.X.X.XR.d x.>X&X;X5X>X=X",
"6XiXbX7X9XH.M $ 4 6 -.pX-XxX-X-XxXmXmXmXmXnXmXcXMXmX|.5.4.5.5.2.2.=._ E.].' v r r r b ] q.b.cX-XzXzX-X-X X.X.X} k G.hX>X>X:X$X>X",
"6XwXiX6X9X,XB.h # a 8 Y.pX-XnXnXnXxXnXnXMXmXnXnXxXnXNXMX!.k.2.2.4.3.2.^ v.].p.] [ r [ l N ).-XzXzX-XzX-X|.*Xl.g #.@X&XpX:X:X=X>X",
"5X6XdXiX5X0X,Xz.e $ a 8 T.pXxXxXxXxXxXxXxXmXmXMXmXnXNXxXMXMX!.9.2...2.X.^ v._.' x [ [ y i..XzXxXxXzX-X.X%Xn.a d N.>X<X2X=X>X2X7X",
"5X6X6X5X5XsX5X+Xe.; * E K U.pXzXxXnXxXnXxXnXnXnXmXmXxXnXnXxXmXmX~.k.@.....) 6.E.' j x y.v.*XzXzX.X-X|.-XR.U f +.@X>X2X2X>X&XvX7X",
">X,X5X,X6X5X0XsX@XC & 3 U A 9.nX-XxXxXxXnXxXxXcXxXmXnXcXxXnXnXnXNXMX*Xv.@. .~ { `.[ ' ~.zXzXzXzX.X|.%XW.U d k B.&X9X2X2X<X7X;X7X",
">X5X,X6X,X6XaX5X5X@Xe.% * E D *.|.mXnXxXxXxXxXcXcXcXmXmXmXmXnX-X-XxXxXMXcXW.6.^ $.D.W.zXcXzX*X*X.X%Xk.I d f z.OX&X>X<X:X<X<X7X;X",
"5X5X6X6X,X6XdXdXiX9X+Xe.% @ d J Y 8.#XvX-XzXxXxXnXxXnXxXnXnXmXpXnX-XpX-X-XnXpX|.c.W.#XxX.X.X-X%X}.o.a o.h $.@X&X5X&X>X&X2X7X;X2X",
"5X5XsXdX5X,XdXsXsXaXaXhXM.: @ g E K Y 8.%XBXpXxXxXnXnXnXnX-X-XmXmXnXnX-X-X-X-X-XcX.X.X.X%X%XR.4.d R 5.h +.H.>X5XpX5X5X;X2X2X2X;X",
"5X5X5XdXdXsX6XiXsXdXiXvXfXH.M % % d U J T -.T.*XBXmXnXnXnXnXxXzX-X-X-X-X-X-X%X.X.XxXnX|.n.} d U j.#.h $.@X&X&X5X>X&X9X2X2X;X2X7X",
"5X5X5X6XdXdXdXdXgXiXCX0XaXfXhXN.h @ = d E E Y E -.c.|.%XsXmXBXmXmXpXmXmXpXpXpX%X}.k.=.I D ) k.n.k f z.H.>X&X5X5X5X>X9X9X9X7X9X9X",
"9X0X5X0XdXdXgXCXCXiXgXdXdXiXaXVXhXz.t %   4 d U E Y Y T ) =.3.6.v.k.n.k.j.l.o.R E E %.5.n.x.k : V B.@X5X5X5X5X&X9X9X9XsX9X9XvX9X",
"9X9X5X0XdXdXiXgXCXCXgXdXgXCXdXaXBXCX,XN.M ; % % 4 d } *.! W W R R R R R R } } <.k.R.v.+.h : j z.@XjX5X5XsX&XsX;X2X9X9X0X9X0X2X>X",
"9X5X5X5X5X,XdXgXCXgXCXdXgXdXCXCXhXaXBXCXsX@Xz.l -     = > d O.O.O.O.O.{ k O.M j h e w h C B.hXhXsXsXsX5XsX5X5X9X9X9X9X9X9X&X>X&X",
",X9X>X9XsXsXsXgXCXbXCXCXCXCXCXCXAXCXCXsXfXBXAXgX+XV.e.B j w ; - - - - - ; : : j M C B.H.hXgXCXCXgXAXsXsXsX9X5XsXsX9X9X2X4X5X>X5X",
">X5X5X5X6XgXCXiXiXgXgXgXgXCXCXgXCXCXCXCXAXgXgXgXgXgXgXgX,X+X@XF.D.D.N.M.D.B.F.H.+XjXhXsXdXgXgXgXCXCXgXsXaX9X5X0X9X9X5X5X&X9X9X9X",
"2X5X0X5X6XgXiXCXCXbXgXiXgXgXCXCXCXCXCXCXCXCXgXAXCXgXfXdX6X,X6XsX,X6X,XsX,X,X,X9X>X,X,X,XhXgXgXCXCXCXdXdXaXaXaX9X9X9X5XsXaX9X9X9X",
"9X5XaXaX6X6X6XiXiXgXgXiXgXgXgXCXgXgXgXCXgXgXAXgXgXAXCXgXgXgXdXiXdX6X6X0XaX9X9X9XiXBXiXiXiXCXCXCXCXCXdXsXaX9X5X4X4X9X9X5XsX9X9X;X",
"5XaX0XaXiXdXdXiXgXiXCXCXgXgXCXgXgXAXCXCXCXgXgXgXgXgXCXgXCXgXdXdXdXdXdXiX0XvXsXaX0XiX0XbXiXiXiXdXgXCXCXdX0X5X5X2X>X9X5XsX,X9X&X5X",
">X9XsXsXsXsXdXdXCXgXdXCXgXCXCXCXgXCXAXCXCXCXCXCXgXgXgXgXCXgXgXCXgXgXiXiXCXdXdXdXiXiXiXiXiXiXiXiXfXsXsXsXiX5X5X5X9X9XdX0X9X9X&X&X",
"&X5X9X,X5XsXsXgXgXCXgXgXCXCXCXCXCXAXgXgXCXCXCXCXAXCXCXAXCXCXCXCXCXbXCXbXdXdXbXiXiX6XwXiXwXiXwX7XfXdX6X6X4X5X5X5X5XaX0X2X9X;X2X;X",
"&X>X5X5X5X5X5X6XiXgXgXgXgXgXCXCXgXCXCXCXCXgXgXCXgXgXgXgXiXgXdXCXbXgXiXiXiXiXiXiX6XiXiX6XiXiXwX4X4X4X,X6X4X4X5X5X5X,X4X2X&X&X2X2X",
"&X&X>X>X>X>X,X>X+X,X,X,X,XhX,XgXhXgXgX,XgXgXgXgXsXgXsXgX6X5X6X,X>X,X,X6X6X6X6X0X4X6X6X6X7X4X>X4X<X4X4X>X>X9X5X5X>X$XXX>X&X&X&X=X"
};
