/* XPM */
static char *_ca871641c2543e4c829226a88cc5772KBQQ0qkzLgD2xyay[] = {
/* columns rows colors chars-per-pixel */
"64 64 256 2 ",
"   c #362A3D",
".  c #4F291B",
"X  c #553131",
"o  c #6C322E",
"O  c #74392B",
"+  c #75482F",
"@  c #1A2B51",
"#  c #292E4E",
"$  c #373B54",
"%  c #0E376F",
"&  c #2D3964",
"*  c #4C384B",
"=  c #603D4E",
"-  c #17405F",
";  c #394255",
":  c #134B76",
">  c #2F4D6F",
",  c #38567B",
"<  c #306279",
"1  c #474657",
"2  c #554D52",
"3  c #694949",
"4  c #68555A",
"5  c #725052",
"6  c #786A59",
"7  c #4F506B",
"8  c #595667",
"9  c #475779",
"0  c #665A66",
"q  c #6E596C",
"w  c #526775",
"e  c #696A6E",
"r  c #776768",
"t  c #686577",
"y  c #786D78",
"u  c #7B7779",
"i  c #992E27",
"p  c #90342D",
"a  c #8F4B2F",
"s  c #874936",
"d  c #8A5537",
"f  c #975939",
"g  c #A75439",
"h  c #9A6538",
"j  c #BB792E",
"k  c #A76A37",
"l  c #A9753C",
"z  c #B57B36",
"x  c #CC7836",
"c  c #895845",
"v  c #995945",
"b  c #92544D",
"n  c #A85A49",
"m  c #9B6547",
"M  c #936F56",
"N  c #AB6F4E",
"B  c #AA7646",
"V  c #B77948",
"C  c #A46B57",
"Z  c #B76B58",
"A  c #B57959",
"S  c #8B5A66",
"D  c #8F716C",
"F  c #89796B",
"G  c #96796A",
"H  c #877879",
"J  c #AE7765",
"K  c #C77347",
"L  c #C57A57",
"P  c #C47B65",
"I  c #BD872C",
"U  c #BB8434",
"Y  c #BA8637",
"T  c #B3843B",
"R  c #BC8A3C",
"E  c #C6872D",
"W  c #D28B27",
"Q  c #D39129",
"!  c #C48836",
"~  c #CF8E35",
"^  c #AA8346",
"/  c #BC8C44",
"(  c #B88748",
")  c #B8914B",
"_  c #AC8759",
"`  c #B78857",
"'  c #AB925C",
"]  c #B89458",
"[  c #9F8D67",
"{  c #98846B",
"}  c #898576",
"|  c #978779",
" . c #99987C",
".. c #AA8467",
"X. c #B88768",
"o. c #AC9767",
"O. c #B89968",
"+. c #A78B78",
"@. c #B88A75",
"#. c #A89A78",
"$. c #B69A78",
"%. c #AAA27B",
"&. c #B9A579",
"*. c #C48947",
"=. c #C79649",
"-. c #C4944B",
";. c #C78C56",
":. c #DA8B54",
">. c #C79757",
",. c #E28F58",
"<. c #D7A15B",
"1. c #C88A67",
"2. c #CF8B6B",
"3. c #C89768",
"4. c #D89869",
"5. c #C89A77",
"6. c #D59B76",
"7. c #E19C62",
"8. c #C5A469",
"9. c #D8A46B",
"0. c #C7A67A",
"q. c #D8A779",
"w. c #CBB278",
"e. c #D9B47A",
"r. c #E3AB6A",
"t. c #EBB666",
"y. c #E3AB75",
"u. c #E7B87A",
"i. c #F1CA78",
"p. c #013E80",
"a. c #014486",
"s. c #165A90",
"d. c #275889",
"f. c #3A5683",
"g. c #3B5E97",
"h. c #15658B",
"j. c #2E6792",
"k. c #3966A7",
"l. c #3F70B6",
"z. c #445989",
"x. c #4D5D89",
"c. c #496489",
"v. c #596786",
"b. c #4E758F",
"n. c #4A6594",
"m. c #777485",
"M. c #6B7690",
"N. c #4E6CA4",
"B. c #897D83",
"V. c #55889A",
"C. c #718896",
"Z. c #6E8EA8",
"A. c #998985",
"S. c #999986",
"D. c #888E90",
"F. c #A89886",
"G. c #A8928A",
"H. c #B69A85",
"J. c #9BA58E",
"K. c #A8A589",
"L. c #B9A588",
"P. c #A8A696",
"I. c #B9A895",
"U. c #B9B397",
"Y. c #98A9A7",
"T. c #90B0B1",
"R. c #A5A9A6",
"E. c #B4B4AE",
"W. c #C59A85",
"Q. c #D59F86",
"!. c #C8A787",
"~. c #CDAC8B",
"^. c #D6A784",
"/. c #DBAC84",
"(. c #D2AD8C",
"). c #DAAE8C",
"_. c #CBB389",
"`. c #D8B887",
"'. c #D4B28D",
"]. c #DCB28D",
"[. c #C8AA94",
"{. c #D4AD91",
"}. c #CBB396",
"|. c #D4B393",
" X c #DBB593",
".X c #D5BB94",
"XX c #DDBA95",
"oX c #D5B79A",
"OX c #DAB79A",
"+X c #DDBB9A",
"@X c #E2AC85",
"#X c #E4B889",
"$X c #E0AE93",
"%X c #E1B594",
"&X c #E3BB95",
"*X c #E9BC97",
"=X c #E3B698",
"-X c #E4BD99",
";X c #E9BD9A",
":X c #C8B9A8",
">X c #CFBBAE",
",X c #E1BDA3",
"<X c #BAC3BC",
"1X c #DAC28C",
"2X c #DEC394",
"3X c #DDC69A",
"4X c #EAC689",
"5X c #EECE8F",
"6X c #F1CB88",
"7X c #F4D58A",
"8X c #E4C295",
"9X c #E3CA96",
"0X c #EACB97",
"qX c #E5C29B",
"wX c #EAC39C",
"eX c #E3CB9A",
"rX c #ECD697",
"tX c #EBD29D",
"yX c #F6DB97",
"uX c #EEE09E",
"iX c #F9E39A",
"pX c #D9C6A9",
"aX c #CBC5B8",
"sX c #D0C9B2",
"dX c #D8CAB6",
"fX c #E5C8A7",
"gX c #EACCAB",
"hX c #EAD4A9",
"jX c #F1D5A9",
"kX c #E5CBB3",
"lX c #E9D6B8",
"zX c #F2DAB8",
"xX c #F7E8A6",
"cX c #FBEBA4",
"vX c #F5ECA9",
"bX c #F4E4B9",
"nX c #F9F4B1",
"mX c #A5BAC2",
"MX c #B3C8C9",
"NX c #BBCACA",
"BX c #CCD2CC",
"VX c #DBD6C5",
"CX c #E9DCC6",
"ZX c #F2DDC2",
"AX c #DAE3DA",
"SX c #EBE2C9",
"DX c #F4E3C3",
"FX c #F1E4CA",
"GX c #F5EBC8",
"HX c #F7F2CE",
"JX c #EBE7D5",
"KX c #F4ECD3",
"LX c #F4ECD8",
"PX c #F7F2D9",
"IX c #EFF0E0",
"UX c #F9F6E3",
/* pixels */
"9X9X9X3XeXeX9X9X9X8X3XeX3X2X2X2X3X3X9XeXeXeXeX9X9X9X8X9XXX`.9X2X2X2X3X3XeX3X3XeX9X3X9X9X3X2X`..X2X1X1X_..X2X2X2X2X2X2X1XXX`.0._.",
"9X0X9XtX0X8XtXXX1XJ M oX3X8XeXtXeXtXtXtXhXtXtXtXtXtXtXrX(.n !.tXeXpX3X3XtXtXhXtX0XtXtX0X9X9XeX9X3XfX+Xm C 2X3X3X3X3X9X9X2XXX`._.",
"tX0XtXtXXXOXCXCXpXG.y R.>XoX`.tXtXtXtXtXyXjXrXtX9XXX.X0.@.p 5 J.E.J.K..XtXrXtXtXhXtXtXtX0X0X2X}.sXdX:XM b S.P.K._.9X9X9X9X2X.X`.",
"`.`.`.`.q.6.hXvXbXSXzXFXJXlXw.!.0.0._.`.e.`.`._.6.fXSXkXkX[.H u u } %.&.`.`..X`.4X`.8X&X`.2X8.#.} F } } } } { { o.w.8X8X2X2X`._.",
"5.0.0.5.Q.q.u.i.i.6X6X7XyX4X6.).!.W.!.(.^.^.'. X/.`.yXcXxX[..._ ' _ ] 0.2.2.$.@.1.3.5.5.0.!.;.;.( T ` ) ) ^ R T V 3.0.~.(.0.1._ ",
"{.(.(.).].q.#X4X6Xi.u.i.5Xr.6.].=X X'. X+X X&X X].9.t.4XwXv ` 8X9X`.`.2XXX'./.]. X&X X X=XOX].w.w.] p g 0.`.`.`.q.6.~.~.~.!.W.W.",
"|.|.(. X&X X>XoXX.v [.dXdXkX,Xy. X X&XXX&X-X-X X^.,.4XGXdXp S E.JXSXdXVXpX X XXXXX X X|.].pXlXdXkXX.p b | I.:X<X:XL X.[.[.L.!.!.",
"(.).4.$XzXpXE.T.s o 8 S.:X:X!.~.{. XXX+X&X-X&XOX9.^.BXdXsXG.R.E.E.U.P.P.U.[.[.{.|.OXXX X'.[.P.P.K.#.J.J.S.J.S.D.D...M u H A.H.!.",
"(.6.-X;XgXKXJXJX[.G.D.%.J.%.O.} m.| F H | L.$XhX1XL.P.J.F.J.%.#.%.%.%.#.&.G H u F.OX X^.Q.$.#. .%.%.%.o.o.' ' _ ..X.n D B.A.L.L.",
"0.6.pX+Xy.rXtXyXFXI.%.$.%.%.V 3 3 3 8 0 8 8 u dXeXw.] ) ) ) ( T U R R T =.6 v.c.w S.6.=X6.( / / R I E R I I I U *.H v.B.[.~.[.!.",
"!.).OX'.9.i.i.i.*X_ R j ! ! x k x J G.H.H.H.A.H.e.9.! I E I ! E E E I R ~ 2 < < : ; C jX/.! ~ E E I E E E E E ! A M.k.v.| A.A.G ",
"!.'.{. Xy.i.i.7Xr.g k <.<.=.,.r.#XXX&XXX&X&X|.(.q.9.*.! E E ! ! E R ! ) 6 #.K.P.K.S.r !.6.) R R Y Y R R R R T ! M , 8 r u B.H H ",
"~.(.'.'.q.i.rXDXP i + :XfXlXCXFXkX#XXX-X-X-X&X%Xe./.8.O.3.3.g s $.8.8.o., v.H A.G.A.P.#.1.c + s h z ! x j a g :.1.m V W.I.I.L.L.",
"!.(.'.).@XjXlX&XL C y u H.I.E.>XpX'.+X-X-X-X&X&XqXFXlXlXlXdXp o B.sXdXG.} 8 y y m.B.[.OXW.f v @.|.XX$.L.J p O G.I.!.9.5.[.~.~.!.",
"~.^.4.:.XXVX:X}.R.P.P.I.L.L.L.L.K.&.&X-XwX;X*Xq.#XSXHXPXKXZX>XI.E.E.G.A...8 K.}.[.[.|.{.5.` `.KXKXJXCXVX[.s 2 u G.F. .$.L.}.~.~.",
"5.5.).=X}.I.L.I.L.L.L.L.L.0.&.] ] ;./.qXqX}.pXfX7.4XyXbXGXKXKXKXJXP.A.o.d w P.[.[.!.+.+.@.) `.SXDXSXLXLXKX[.| } D.S.K.!.G.[.I.H.",
"1.=XlXzXoXo.O.8.O.] -.*.=.~ E x R 3.D.u y , Y.zX#X6X7X7X7XyXyXtXhX#.( j t k.v.y y 5 W.CX!.) >.y.eXjXeX#XhX}. .#.&.] 3.+.y B.B.B.",
"L ,XlXlX.X( ! ! E E ! E E E E ~ ! G 9 ; 9 : b.lXwXu.7XyXyXyX7X7X7X=.I z y Z.v.t t S ,XZXXX>.;.4.6XrX4Xe.i.o.( R R T z D m.m.m.m.",
"{ | pXkX_.U E E ! x ! U ! ( K V ` e > w M.e u 1X,X7.2. XyXjXiXiXyX>.R =.^.[.H | F.y M.:XkXwX].4.u.5XrX5X9X' l h + + h 0 y A.A.D.",
"!.H.K.P.&.l l N d s c v b c b a A D.D.}..X X^.`.y.,.2.1.X.5.@X0X7X&.&.~.G.A.~.].].L.8 w }.qX`.7.L 1.8.4X0XO.+ . . + B ..!.[.~.[.",
"~.Q.W.2.m s s a s s f B B l l l A G L.[.[.[.H.!.].r.i.5X#Xy.^.A ;.0.w.*.S G.|.XX&X-X{.~.^.^.r.7.y.].Q.%XwXq.J ..O.] 3.XX'.|.~.}.",
"W.2.^.2.3.{.'.^.3.i p _.fXfXfXe.A 9 m.y 0 } fXgXkXr.t.y.gXCX{.K 4.hXqX^.R.M.m.D H G S J =XkX#XZXSXSXJXW.C [.CXCXCXCXlXdXI.F.| G.",
"6.$XgX,XpXkXlXNXR.i X M.mXBXJXdXI.M.l.9 4 {.lXsXCXkXFXLXPXUXI.i = M.BXCXCXR.n.1 8 8 = 7 VXZXLXJXKXsX>XD i S <XdXsXsXU.#.G.q 8 8 ",
"6.fXgXCXLXCXVXE.G.Z q t D.Y.R.Y.P.Z.k.# * I.,XVXUXLXIXLXLXZX>XW.B.B.BXCXaXA.M., 8 8 = < <XZXFXJXJXSXCX:Xb y M.P.K. . .%.#.q 7 2 ",
"1.=XgXZXUXUXUXUXPXaXD.R.Y.P.J.K.P.b.j.: 1 4 H.dXUXPXPXPXPXUXPXPXJXFXLXdX .| w : j.< & z.aXfX].fXFXFXSXpX&.K. . . . .#.] G w * 2 ",
"X.J ,X/.qXGXUXUXUXAXT.R.K.&.&.>.A I.Z.w ~.@.Z W.fXjXgXzXzXPXUXUXUXUXPXdX| _ 4 u D.b.% 1 W.dX4.:.4XgXZXVXJ. .J.%.o._ ( ) 0 > 1 S ",
"!.5.6.4.u.yXbXbXPXdXY.U.O.! ~ E ` H u _.wXwX/.q.7XcXiXyX5XrXjXjXzXzXzX,X..x 3.2X&XoXD.w U.pX_.7.uXrXu..X .O.` T T T T ^ w w +.[.",
"!.~.'./.u.iXuXyXiX&.[ ) x W x ~ _ S..X9X&X*X=X].i.cXvXvXvXcXxXjX6Xu.t.>.j ~ ].3X8XqX=XOXoX3X/.:.7XcXiXw.m T T U T T l M L.{.{.}.",
"(.~.{.).y.7XiXiXiXw.B E W W ! z X.=XqX;X*XqX;X].9.cXnXnXnXvXnXvXvXcXiXw.j *.#XqXqXqX8X&X@X^.4.x 4.9XyX_.l T T l k + o C !.|.{.}.",
"'.(.|.].4.4.7XiXiXe.U W j d + n 5.;XqXqX8XwX;X%X4.q.tXxXvXnXnXnXnXnXcX`.j *.#XwXqXwX#X6.^.=XgX4.n C q.e.B T d + o O a N M @.!._.",
"'.{.^.6.4.n K 4.7Xi.h + o O N ;.1.oX;XwXwXwX;X#X3.n A 1.q.4XiXxXxXvXvXe.z A =XXX`.XXQ.lXLXLXJX#X#X5.Z A + 3 + + k z z c 7 t 4 r ",
"0.2.6.$X#Xi.4.g g A o + A *.~ *...J @.'.).#X*X;Xr.4.9.4.P Z A 2.1.q.4XO.s d D D S A m M.C.M.4 A #XrXqX` d m B T z T V 5 g.z.x.7 ",
";.%XgXgXy.i.7X/.6.Q.{.fXeX~ E ! B.M.8 q 4 M H sXgXzXgXQ.n K  X^.5.2.6.A m 5 N.9 * X 3 % : w :XfXgXlXfXQ.Q.*X&X X`.2X`.+.n.N.x.1 ",
"K %XCXSXCXSXHXPXVX2.>XKXbX<.E *.m.k.k.* O & > VXLXAXkXn i p JXIXJXFXGXzXfXW.N.l.n.* $ - d.>XUXJXBXI.g i D VXCXVXVXSXJXlXP.9 d.$ ",
"L lXLXNXmXMXMXE.G.i 5 R.CXe.~ _ v.z.n.> o % n.JXZXdX>Xi p o I.dXkXCXsXU.K.[.A.l.k.7 * * & [.LXSX>XB.i o 3 R.E.aX:X:XU.J.U.< : > ",
" XFXIXAXMXMXMXMXaXZ 5 x.E.bX3.v.z.n.f.9 X % 4 zXgXVXJXP n B.P.sXU.K.#. .#.$.G , s.:   2 w G GXPXZX>XZ o $ v.aXaXK.S. . .J.C.< 1 ",
"CXLXLXLXUXPXIXAXBXBXNXNXBXSXU.f.d.9 9 $ # @ 1 qXzXCXkX>XU.P.K. . .%.&.L._.5.G : h.> @ $ V.S.GXHX,XkXdX[.R.:XP.S. . .#.#.) G 8 r ",
",XFXFXPXUXPXPXPXIXAXAXBXNXMXaXR.mXBXE.9 - v.4 6.ZX:XI.F. .%.$.&.&.w.0.8.-.K u V.J.+.| S.D.G zXbXkXkX<XP.S.S.S.#.#.O.` *.x 1.F._.",
"q.6XjXbXGXJXPXUXUXLXIXLXKXCXaXSXbXY.b.w  .F.F A E.F.$.$.o.&.O.8.=.! ! E R K | [.XX&XXX]./.4.#XbX,XI.A.S.S.#.o.) / -./ *.^.OXoX.X",
"(.6XyXxXxXjXxXbXDXKXUXUXHXHX:X}.&.} D.}.qX+Xq.+.e &.M _ ) R ~ ~ Q Q Q E ! ` !.XX#XXXXX=X/.q.y.bX,XG.F.#.` ( ( / *./ V ;.).|..XoX",
"!.u.yXxXxXxXiXuXyXhXGXHXHXDXoX~.'.XXqX*X&X&X#X_.M T I E Q Q Q Q Q Q ~ R B @. X&XXX].&X&X Xq.#XjXU.#.O.) / ! / *.( V g 3.'.oXoXoX",
"(.q.i.xXiXcXcXcXcXxXxXxXvXbX~.+X8X8XqX8X8X#X@X/.{ E Q Q Q Q Q Q ! T d X s @.XX&X&X4X&XXX).5.6.rXX.` / -.-.*.( V v + m 1.[..X.XoX",
"].q.m 5.rXiXcXnXcXnXcXcXcXyX/.2X8X8X8X&X&X).4.`.M ~ W W Q R T l + O + O k @. XwX8X&X&X8XgX^.C @XB ( -.( / ( d X O m ] v 4 A.}.oX",
";.4.n b N 6.`.tXcXcXcXcXcXxX!.~.8XXX]. XfXlXjX$._ ! E z h + . + h z z U K X.G +.H.+.H R.Y.H.P J ` / -.^ v O . m ` *.V 0 9 7 H H ",
"/.4.y.e...v C v Z 4.i.0XjXyX_ S H.D J CXZXCXZXJ c + m d a h h U I U U Y K F e 2 * $ % : % , q.P A ) m o . + B -.=.=.V 7 n.x.8 4 ",
"FX@X4XyXyXeX&Xq.N n n n Z K v * 0 3 4 M.Z.C.B.J O v A ! U Y I T T U U T V v.n.4 * % a.a.a.: !.q.v + + d V =.=.=.-.*.k 1 n.v.7 5 ",
"FXwXu.7XyXiXyXuXyX@X1.L Z n b f.9 = > a.a.a.: A.( Y U T U U U T T ^ T K c f.z.0 X % a.a.a.% $.6X..^ ) =.=.=.=.*.*.V 3 z.x.x.x.5 ",
"DXgX9.r.4X5XyXyXyXyXyXyX7X6.S z.g.= & a.a.a.a.G / I I U T T ^ ^ ( *.x c 1 k.g.t + $ % a.a.% F 6XO.=.<.=.=.=.;.( m 2 z.z.z.x.9 = ",
"DXzX&Xq.y.q.e.XX7XyXiXiXiX7X+.f.g.= & a.a.a.% } ) I I T ^ ^ ^ K N 5 9 j.k.j.< 7 * * & f.n.c.8 `.' =.=.>.-.K m 4 9 z.z., > - : 2 ",
"zXDXFXzXgX;X*Xq.9.i.6XyXyX6X{ z.z.; % p.s.j.d.6 ( U T ^ ^ T m 4 z.k.k.j.h.j.< ; @ @ q >XCXSXdX.X_ =.>.>.l 5 7 f.f.d.: : : h.< 1 ",
"DXDXDXDXDXDXDXzX8X#Xy.y.u.t.m 2 3 - % > NXAXVX6.! ( _ B 6 ; > j.s.j.b.Z.Y.Y.,   * = * @.eXzXFXzXX.) B + ; > f.< c.V.Z.Y.P.u 0 1 ",
"=XlXDXDXDXDXDXDXDXzXjX*X#X<.g f > > $ 8 H.fXDXjXq.o.C.V.V.V.Z.Z.T.<XdXjX0.; @ D H.2.Z ;.`.3XgXlXOXH.u w C.Y.E.sXdXgXjXhXL.u 0 K.",
"q.^.].fXlXZXDXFXDXDXDXzX0X,.K 9 - r L.}.K.K._.3XhXlXdXVXSXVXlXzXjXfX^.L f 4 A.|.$X X%X6.q.e.1XeXhXhXlXlXhXhXeXqX'._.$.{ 6 F I.oX",
"m 3.y.q.^.(.|.,X;X*X@Xy.6.y.#.0 |  XwX;XqX_.L.L._.(.&XfXhXeX&X@X2.C M G $. X&X X$X X X=X$X6.9.9.9.e.`.`.e.e.q.9.5.$.+.+.I.oXoXOX",
"0 G 4.4.6.q.4.,.,.L ,.2.!.|.oXOXwXqXqX8X+X-XXX2X2XXX8X8X3X&X#X#XXX XOX=X-XXXXXXX%X&X%X%X&XXX&X].).q.q.q.q.q.q./.`.|.|.|.OXOXOXoX",
"}.oX X=X=X$X@X/.@X#X].XXfXwXqXqX9XqXqXwXwX8XqXqXwXqX8XqXqX9XqXqX8X-X-X-X&X-X-X-X-X-X&X&X X&X&XXXoXXX+X&X.X+X XOX|. X|.|.OXOXOXOX",
"'..X+X+X+X&X2X+X;X*XqX8XqXqXqX&XqXqX-XqX;XqXwXwXwXwX;XwX;XwX;XqX&X&X&X-X&X+X-XXX-X X=X X=X=X&X=X X%X%X X X{. X X|.|.|.|.|.OXOXoX",
"(.|.XXOX+X+X+XXX&X*X+X+X&X-X&XqX-X-XqX-XqX-X-X-X-X;X-XqXwX;XqX;XqX-X-X-X-X-X&X-X&XXX X&X X X X X X X|. X X X X|. X|.|.{. XOXoXOX",
"'..X+X+X+X+XOXXXXXXX&X-X&XqXqX8XqXwXqXwXqXwX;XwX;XwXwX;X-X;X;XwX;X-X=X&X+X-X-X-X-X X-X X&X XXX X%X]. X X X|. X].].|. X.XoXOXoX+X",
"{.|.+X+X+X2X-X&X-XqXqXwXwXfXqXwXwXwXwXwXfX&XqXqXqXwXwXwXfXwXwXwXwXwXwXwX-XqXqX&XwX&X-X=XXX X XXX].XX].|.|.].'.|.{.].|.'.|.OXoXoX",
"(.|.+X+X+X+X+XXX+X-XXX+X+XXXqX+X-X-X-XqXqX&XqXwXqXwXwXwXwXfXwXwXwX-XwX-X&X&X-X-X&X&X X X X X X X X|.(.(.~.(.{.(.(.|.(.(.~..X|.oX",
"(.{.|.OXOXOX X+X X X+X-X+X-X-X+X&X=X-X=X+X=X-X=X-X;X-X-X;X=X=X-X-X=X-X=X;X-X-X-X=X=X=X X]. X{. X|.'.~.~.(.(.(.~.~.~.(.(.~.[.[.{.",
"(. XOX=X-X-X-X=X=X-X;X&X;X*X-X-X;X=X*X*X=X;X;X=X;X;X=X;X;X;X;X;X=X;X;X;X;X;X=X;X;X;X=X=X%X X X X{. X^.~.(.(.(.(.(.^.!.~.~.~.(.[.",
"{.{.%X=X=X*X&X&X;X;XwX*X*XwX*X*X*X*X*X%X=X*X;X=X;X;X;X;X;X;X;X;X;X=X;X;X=X;X;X;X=X%X].%X%X$X{.{.).).).].{.].^.).).(.).(.'.].|.(."
};
