/* XPM */
static char *adefde8b641144b8e34d6ee1e42e7c370owPee1pjFFrHSmd[] = {
/* columns rows colors chars-per-pixel */
"64 64 252 2 ",
"   c #182F3C",
".  c #2F3436",
"X  c #1F172A",
"o  c #4C2D30",
"O  c #6C1C34",
"+  c #4E473B",
"@  c #6C583E",
"#  c #6E5236",
"$  c #76643A",
"%  c #123555",
"&  c #282942",
"*  c #2C394A",
"=  c #0D376D",
"-  c #493A4B",
";  c #623953",
":  c #344B4F",
">  c #18527D",
",  c #16466A",
"<  c #2A4769",
"1  c #2E5178",
"2  c #295668",
"3  c #47554B",
"4  c #434A5C",
"5  c #575753",
"6  c #53514E",
"7  c #675549",
"8  c #775748",
"9  c #675A58",
"0  c #705150",
"q  c #4B6352",
"w  c #536A53",
"e  c #7B664C",
"r  c #6A6357",
"t  c #786558",
"y  c #7B7459",
"u  c #757A57",
"i  c #545B64",
"p  c #50566F",
"a  c #725B6F",
"s  c #57676D",
"d  c #506973",
"f  c #776767",
"g  c #707072",
"h  c #AA2F35",
"j  c #D12532",
"k  c #E73539",
"l  c #984D36",
"z  c #895A39",
"x  c #905634",
"c  c #B65B2A",
"v  c #A95A3A",
"b  c #B45B36",
"n  c #A64F38",
"m  c #91633E",
"M  c #AA653A",
"N  c #BB6D3C",
"B  c #BA663A",
"V  c #B9743B",
"C  c #B17035",
"Z  c #8A741F",
"A  c #C56628",
"S  c #D7742A",
"D  c #C76C37",
"F  c #CC743C",
"G  c #C8773A",
"H  c #DB7C35",
"J  c #D57A3C",
"K  c #D97B3A",
"L  c #D57736",
"P  c #D07531",
"I  c #D4602B",
"U  c #825B44",
"Y  c #9B5E48",
"T  c #885B50",
"R  c #A35449",
"E  c #89684A",
"W  c #986A47",
"Q  c #846956",
"!  c #986B53",
"~  c #867357",
"^  c #977558",
"/  c #997149",
"(  c #A66848",
")  c #B46B44",
"_  c #AA7347",
"`  c #B87747",
"'  c #A67654",
"]  c #B57A54",
"[  c #857567",
"{  c #8E786F",
"}  c #966D6A",
"|  c #D75858",
" . c #CE7B42",
".. c #CA7744",
"X. c #CE704B",
"o. c #DC6C56",
"O. c #768378",
"+. c #6D8673",
"@. c #B69230",
"#. c #DA853A",
"$. c #D6903C",
"%. c #E38536",
"&. c #E89E3F",
"*. c #E9A23F",
"=. c #F0AD36",
"-. c #D5B02E",
";. c #F9D63C",
":. c #B98B56",
">. c #979378",
",. c #938471",
"<. c #B58D6C",
"1. c #B7A574",
"2. c #AEAB73",
"3. c #8E9A4F",
"4. c #C78646",
"5. c #D78944",
"6. c #D69547",
"7. c #C8885A",
"8. c #D19256",
"9. c #E49A46",
"0. c #E39B51",
"q. c #DCA344",
"w. c #DBA65A",
"e. c #C8A151",
"r. c #E7A546",
"t. c #EDB646",
"y. c #E6AB59",
"u. c #EBB758",
"i. c #F4B04E",
"p. c #CB936E",
"a. c #DCA761",
"s. c #DCB46B",
"d. c #C6A974",
"f. c #D5A976",
"g. c #DBB677",
"h. c #C8AE72",
"j. c #E1A868",
"k. c #E9B966",
"l. c #E5B975",
"z. c #EBB173",
"x. c #F0C554",
"c. c #D9C77A",
"v. c #EBC468",
"b. c #EAC675",
"n. c #F0D073",
"m. c #18598A",
"M. c #0D5C99",
"N. c #135D96",
"B. c #0F4E83",
"V. c #156499",
"C. c #32698D",
"Z. c #035DAA",
"A. c #165BA5",
"S. c #045DB4",
"D. c #1066AE",
"F. c #2E70B0",
"G. c #215F88",
"H. c #557790",
"J. c #697B88",
"K. c #8B7B90",
"L. c #528785",
"P. c #758B90",
"I. c #7398A5",
"U. c #99938A",
"Y. c #8D9092",
"T. c #A49B88",
"R. c #A88E92",
"E. c #91AB89",
"W. c #B7AA86",
"Q. c #B8B798",
"!. c #ADA98F",
"~. c #9996AA",
"^. c #829FB6",
"/. c #96A7B0",
"(. c #ABB6B7",
"). c #B2B3AD",
"_. c #C79D81",
"`. c #CAB588",
"'. c #D7B888",
"]. c #CAA896",
"[. c #C9B797",
"{. c #D5B997",
"}. c #CBAA8C",
"|. c #E4B785",
" X c #C5BBA6",
".X c #CEBDA7",
"XX c #BDC790",
"oX c #B3C2AA",
"OX c #DEC68A",
"+X c #DAC699",
"@X c #D1CE97",
"#X c #E7C986",
"$X c #E9D48D",
"%X c #E5CB94",
"&X c #E8D598",
"*X c #F2D690",
"=X c #EEE98C",
"-X c #C9C5A5",
";X c #D6C7A7",
":X c #DAD6A9",
">X c #C9C9B5",
",X c #D5CAB6",
"<X c #CBD6BE",
"1X c #CED8BE",
"2X c #C4D2BC",
"3X c #DADBB3",
"4X c #D4DBBD",
"5X c #D8D7B8",
"6X c #CBD2A1",
"7X c #E3CDA4",
"8X c #E4D3A4",
"9X c #E4D3AB",
"0X c #E6D8A9",
"qX c #E3DBBD",
"wX c #E6D7B7",
"eX c #E1CEB8",
"rX c #DBE1B9",
"tX c #DFE2A7",
"yX c #E1E2B5",
"uX c #EFE4AC",
"iX c #96B6C4",
"pX c #B6BEC3",
"aX c #BCCDCB",
"sX c #C5D6C3",
"dX c #CBD7C4",
"fX c #C7D8C6",
"gX c #CDD9C5",
"hX c #C6D6CA",
"jX c #C9D7CA",
"kX c #C7D9C9",
"lX c #CDDBCA",
"zX c #D2DBC5",
"xX c #D1DDCA",
"cX c #DAD9C5",
"vX c #CDDDD1",
"bX c #C5D9D5",
"nX c #D2DED0",
"mX c #DFDFD3",
"MX c #C8C8C3",
"NX c #E4DCC3",
"BX c #E3DBCA",
"VX c #E1DFD2",
"CX c #CEE1CC",
"ZX c #D4E1C5",
"AX c #D3E1CC",
"SX c #DAE3C9",
"DX c #CEE1D0",
"FX c #D3E1D1",
"GX c #D8E3D3",
"HX c #E8E3C8",
"JX c #E3E3D5",
"KX c #F2E5C2",
/* pixels */
"dXgXgXfXzXzXlXzXdXlXlXlXlXlXzXlXlXcXlXlXzXlXlXlXlXdXlXzXlXlXcXzXxXxXgXgXxXlXxXjXjXjXjXlXlXlXjXlXvXlXgXkXjXjXjXjXjXjXjXjXjXgXkXxX",
"dXgX1XfXdXdXdXdXjXdXdXlXdXzXdXjXdXjXlXzXjXdXdXzXcXlXlXlXzXlXlXdXxXjXxXzXjXlXlXjXlXjXjXlXgXgXhXhXjXjXlXjXjXjXjXhXjXhXhXfXhXjXjXnX",
"dXdXdXdXdXdXdXdXdXdXjXjXgXjXcXdXzXlXjXjXlXlXdXdXdXlXxXgXxXlXcXlXgXjXxXjXxXlXlXlXlXlXlXjXlXlXjXlXlXlXlXhXjXhXjXjXhXhXhXhXhXhXkXnX",
"zXdXdX1XdXdXdXlXdXdXdXcXzXdXcXlXlXzXcXlXcXdXzXzXlXlXzXdXdXzXlXlXjXzXgXjXjXjXxXjXlXlXlXlXlXlXlXlXlXjXlXvXvXjXlXjXjXjXlXjXdXlXlXxX",
"1XdXdX1XdXdXlXdXjXdXdXzXlXdXlXlXzXzXlXcXzXcXzXlXzXdXlXzXzXlXlXdXjXzXjXxXxXxXlXlXlXlXlXlXlXlXlXlXjXlXlXlXlXjXjXjXvXjXjXjXkXjXvXnX",
"zXdXdXfXdXdXdXdXcXdXjXdXdXlXdXzXlXdXlXdXlXlXdXcXzXlXdXdXzXdXzXlXxXjXzXjXjXjXlXjXlXlXlXvXlXlXkXlXvXlXdXjXjXlXlXlXjXjXvXjXkXvXnXnX",
"1XdXdXdXzXdXzXdXdXjXdXjXjXdXdXzXdXzXzXlXjXlXjXdXdXdXjXlXlXlXlXjXgXjXzXgXlXjXlXjXlXfXlXlXlXkXfXgXjXgXlXlXlXjXlXlXlXjXvXjXjXvXlXnX",
"dX1X<X1XfXdXdXdXdXdXlXcXdXdXjXlXlXzXjXcXjXlXjXcXlXlXlXcXxXdXlXzXzXlXjXgXlXlXgXlXlXlXgXlXlXgXlXlXjXkXkXlXjXjXlXlXlXlXjXhXjXjXjXnX",
"<XdX1X<XdXdXzXzXzXdX<XgXdXlXlXdXlXdXjXlXlXdXdXlXgXlXgXCXgXlXlXlXjXgXgXjXjXlXlXlXjXlXlXlXCXgXlXlXgXcXlXlXlXlXxXlXjXlXlXhXbXlXbXxX",
"<X1X<X<XdX<XzX;X[.cXlXfXdXdXlXdXjXdXcXdXjXjXlXdXgXlXgXgXlXlXlXlXxXlXlXlXlXlXlXgXlXlXbXlXkXlXCXCX`.! ;XxXjXlXlXlXhXlXkXlXjXlXkXnX",
"zX<X<X<X<X1XzX! # f [.CXjXdXlXlXcXlXlXzXzXzXlXlXlXgXlXlXlXlXlXAXxXvXlXxXlXlXlXlXlXbXlXlXkXgXCXoXy.7 [ cXlXlXjXjXjXfXkXkXhXkXlXvX",
"zX<X<X1X<XzX>X' ! i E +XxXdXzXlXjXlXlXdXlXlXlXzXkXlXlXlXlXlXlXlXlXxXlXlXlXlXlXlXlXDXkXlXCXgXCXc.6.E 0 {.zXlXlXlXjXlXgXkXlXlXlXFX",
"<X1X1X1X1XzX>X] ..E T :.4XlXjXxXlXlXlXlXlXxXxXlXCXlXlXlXlXlXlXlXlXAXlXlXlXlXlXlXlXCXlXDXlXAX2X:.9.E T p.:XlXlXjXlXgXlXvXlXlXvXvX",
"1X1X1X<XdX4XzX' W W ~ E <.9XlXzXcXlXlXxXxXlXlXlXlXlXlXCXlXlXFXlXlXlXxXlXDXlXlXvXvXlXlXAXzXCX!.w.i.! T 7.:XlXlXjXlXbXlXvXkXkXvXFX",
"1X<XzX<X<X1XAX<.M ` W s s a.3XlXlXlXxXlXlXxXlXxXlXlXCXlXlXxXnXlXFXlXvXlXvXDXlXlXlXvXvXzX1XDXh.w.r.' T | +XlXgXgXlXlXkXkXkXlXlXvX",
"zXzX1X1XzXzXFXp.G  .` t 9 ) g.CXlXxXxXxXlXxXxXCXxXAXlXAXDXxXlXFXvXnXvXnXlXlXlXlXvXlXlXzXZXoXw.=.r.( ! X.+XCXfXgXlXlXlXlXkXlXlXFX",
"dXzXzX<X<XdXFX_.c #.#.E e Y  .5XvXxXlXxXlXxXAXlXCXxXlXAXlXlXxXlXvXxXxXvXxXxXlXxXvXlXCX1XDXoXq.r.5.( ^ 7.%XlXgXlXlXlXkXlXkXkXDXDX",
"zX1XdX1XzXzXFX.Xv _ _ V Q C.f y.AXzXzXzXxXlXlXxXlXZXxXlXxXxXxXxXxXvXxXlXlXjXxXlXlXlXZX1XGXT.` q.&.W ^ 7.+XzXlXgXgXlXlXlXvXlXvXlX",
"zXzXzXzXzXxXxXcX( ..G  .W p r G %XxXcXzXzXlXzXzXzXAXzXxXxXzXxXxXxXxXxXlXlXxXxXxXlXxXZX3XCX>.q.q.5.' t ( OXdXdXcXzXlXlXkXlXlXvXAX",
"1XdXzXdXzXdXzXnX<.P J ..G E 7 W 6.0XxXdXzXZXlXzXCXzXxXAXxXAXAXxXxXxXxXxXxXxXxXxXxXvXZXtXoXe.u.t.9.) e ] '.cXdXlXlXZXlXlXlXvXxXxX",
"zXgXdXzXdXzXdXzX}.P H J G W r 7 V i.cXzXzXzXzXzXzXzXxXzXAXzXxXxXxXxXxXxXxXjXxXxXxXvX4XrX!.v.b.t.5.( ^ ! '.xXlXlXlXlXlXlXvXlXvXFX",
"zXzXdXdXzXzXcXxX'.c V M V ` e q 7 $.$XxXzXzXzXzXxXAXAXxXxXxXxXxXnXxXxXxXxXxXxXxXAXlXZXrXO.f.d.6.5.( t E a.cXzXlXnXlXvXvXvXlXvXFX",
"zXdXdXlXcXlXzXzX;XB P G G N W 7 : v y.zXzXzXzXAXxXxXxXAXAXxXxXnXxXxXxXxXxXnXxXZXlXlXrX2X~ 4.6.q.9.Y Q E 8.5XdXlXlXlXlXvXnXlXCXFX",
"zXxXzXdXdXzX4X1XzX6.S L J  .` 8 i 5 ..OXAXzXzXAXzXzXAXlXxXAXnXnXnXxXnXxXxXxXxXAXlXlXrXoX1.*Xv.t.&.W Q Q 6.5XzXxXlXlXlXvXlXlXvXFX",
"zXdXxXdXxXxX1X4XxX7.S H F ` F ( s 1 $ 9.4XZXxXxXxXxXxXAXCXxXnXxXnXnXxXxXxXxXxXnXlXxXrXQ.'.cXb.i.r.Y e ^ 4.:XzXlXjXlXvXlXvXbXvXFX",
"zXdXzXgXcXxXzX5XSXp.c N B  .H G E 6 5 D |.AXzXxXSXxXxXAXxXAXAXxXnXcXxXSXxXxXxXxXCX1XtXT.f.$Xw.w.y.Y t ~ J :XzXlXlXlXlXlXvXlXvXxX",
"zXgXjXzXzXxXxX4XSX[.c G F B B B U x s p 4.3XxXzXAXxXxXlXxXxXxXAXxXxXxXxXxXxXxXlXDXtXtXf M 4.#.6.9.Y 0 ~ ) ;X4XlXxXlXlXCXlXlXlXFX",
"zXxXgXxXzXzXxX4XSX[.c #.L J F D M U 5 6 l y.rXZXzXxXlXAXxXxXxXxXxXxXnXxXzXxXxXxXCXtXoX5 y.b.k.r.&.N E Q m '.rXgXlXlXlXlXlXlXAXFX",
"zXxXgXzXzXzXxX4XcX+Xc H K K H S H W e 3 9 S b.AXzXxXxXxXxXxXxXxXxXxXxXAXxXxXxXnXZXtXI.d i.b.l.u.i.) 0 t M j.ZXzXvXxXlXlXAXlXFXFX",
"zXzXzXgXxXzXxXcXcX5X) P H P D P K G E 5 d W r.SXAXzXAXzXzXxXxXAXxXxXSXxXxXcXzXxX5XtXJ.r v.#X%Xv.6.Y 9 ~ W a.ZXzXlXlXlXxXlXlXAXFX",
"zXxXzXzXxXxXzXzX4XSX7.l b G #.%.K K M t C.9 B b.ZXgXZXxXAXlXAXxXxXSXAXzXxXxXzXxX3X@X+.Q r.z.z.8.8.` 0 y E 4.3XjXxXlXlXlXlXxXlXnX",
"zXzXzXzXzXgXxXzX1XSX_.A D n R D B L F E s i l %.rXzXzXxXzXAXzXAXxXxXxXxXxXzXgX4X&X2.G.i $.w.9.*.y.8.0 r ~ ] :XAXjXlXlXlXlXlXxXxX",
"zXxXzXzXzXzXzXzXzXxX;XN %.L B b b b ) v U 7 0 c k.SXzXZXzXAXzXxXxXnXxXxXxXzXxXcX:X+.N.5 v.#Xv.u.&.9.U f e E :XZX1XgXlXZXlXlXAXAX",
"zXzXzXlXzXzXxXxXcXzX:X..c D P K K K F  .Y z s 0  .3X4XcXzXzXzXxXxXxXxXxXxXxXgXZXXXq S.1 j.#Xu.y.u.6.V 8 e e OXCXgXlXlXzXlXzXzXzX",
"xXzXlXzXgXzXxXxXgXgX3Xp.A D F J K K J L D m d C.R `.ZX4XzXzXzXzXxXxXxXxXzXlX4XSXT.e a 0 l.&Xz.y.y.y.! 8 :.3 +XxXgXfXdXlXlXlXxXxX",
"xXzXzXzXjXgXzXxX4X4X9X}.S F n n ..K H S G W r F.0 X.4XrX4XzXzXzXzXzXzXzX4XzXZXSXu m.1 0 5.y.v.y.y.w.! 7 / 6 [.xXgXCXzXgXzXzXzXzX",
"zXxXdXxXgXzXxXxXgXzX:X'.D H H X.b b b b D Y 8 9 - ; U.aXzXzX4X1X4XzXzXzXgXzXAX;X5 A.D.< 9.=.6.0.y.y.] 6 [ 3 !.SX1XgXdXgX4X1X1X4X",
"zXxXzXgXxXlXxXzXgXxX3X+XF S S S D D F F F  .) T : p O.Y.iXlXcX1X4XzXzXzX4XgXrXQ.2 A.D.< @.w.y.9.y.j.X.7 t 3 ,.SXfX1XdXfXlXlXrX3X",
"zXgXjXzXlXzXzXlXzXjX1XcX1.A L J L L F X.7.] ^ ,.>.W.2.,.P.iXgX4XzXzXzXcXzX1XyX,.= A.S.1 6.b.b.y.9.a.<.8 Q 3 8 BXFXkXDXSXtXXXE.L.",
"zXxXzXzXxXzXxXzXxXxXgXxX{._ M B ( W <.p.}.%X%X%X%XuXc.. ,.I.iXZXZXlXdXzXfX<XrX<.: < 1 < ' p.w.a.w.a.d.7 6 . & O.rX6XXXE.L.V.Z.Z.",
"xXzXzXzXlXzXlXzXxXxXnX,Xj.b.v.j.g.OX0X8XuX[.h.*X&X|.| h } ,.^.MXAXlXCXAXtX=X-X3 : q e :.[.[.}.+X+Xg.e.@.@.,.f * g +.G.Z.Z.D.Z.V.",
"zXlXgXgXzXlXlXlXzXzXxX{.y.k.k.n.n.$X7X9XuX7 6 *X%Xj k | h s ^.pXyX&Xc.2.3.+.* : w y :.$XJXHXKXT.-XwX&X;.=Xy r g * % V.A.D.M.M.V.",
"zXgXgXdXgXxXzXlXxXzXcX].k.k.u.#Xn.*X&X8X8Xb.1.|.9Xo.h O X   I.Q.+.+.2 V., . : w E 7.k.GXwXeXuX7 ,.uX$Xt.=.e.>.!.6 o % N.M.M.V.V.",
"ZXlXlXzXgXgXzXgXzXnXnX{.j.v.v.n.v.&X9X0X0XwXuXqXqXKX}.[ u >.2.>., S.D.V.< : : E _ 8.eXGX9XBX0X%X[.&XX.k | I ,.~.t - % > > m.M.V.",
"zXlXzXzXzXzXgXzX4XzXzX'.y.v.v.v.n.0X0XNXNXqXqXNXBX8XuX;Xh.`.W.y C.F.D.1 g 2 : / ] '.JXVX9XBXNXNXwXwX| j R O = H.{ d V., , m.N.m.",
"xXzXlXgXgXgXgX8X$X@X;Xg.w.z.b.u.b.8XwXqXJXJXNXNX0X&XeX'.1.W.2.U.+.+.< d T.g . E X.7XJXBX7XBXNXqXNXNXeXp.x o C.J.} g D.G.% > > G.",
"zXzXgXzXfXgX4X+X;X:X%X,X{.v.u.u.k.#XqXNXHXKXHXHX0XNX,Xg.h.2.!.-X+.T.Y.* p +.3 7 :.+XmXBX9XNXNXeX5XBXNXHX*Xg..XI.^ >.F.D.* % , % ",
"ZXlXgX4XlX3X3X;X,X8Xv.#X'.w.k.#Xz.&X0X9XNXwXwXqXqX5X@Xg.g.+XQ.P.1 f o < B.Y.rX'.:.1.NXJXVXVXVXNX,X(.MXcX5X7X~.J.U.p.H.,     # @.",
"xXlXgXzXzX4X4X-X>X>X}.'.{.].{. X&X%X7X0X8X7X7X0X7X%X%X+X&X;XP.J.O o % m.% g KX&Xl.1.}.mXJXcXeX9X7X)./.pX(./.Y.bX>X4   . Z -.n.=X",
"AXgXgXlXjXzXlX4X1X<XoX[.].].{.U.[.#X$X#X#Xl.OX7X+X9XmXT.K.R.pX; & = = & . z d.{.#X|.cX,X;X{.{.;X-X;X,X<.~  XNX X[ 8 @.x.$X1XbXbX",
"ZXgXlXgXzXgXlXzX5X1XlX2X1.<.R.Y.a } |.*X&XOX.XMX.X XK.} J.~.p . 6 x V a.#X0X:X-X.X[.>XqXcXNXeX&X+X XT.>.oXlX).!.@X&XrXDXbXkXkXkX",
"zXgXzXgXjXzXlXgXfX4XdX:Xb.Q.).).K.p 0 R.).~.~.,.T # U E W @.:.y.v.%XrXDXDXlXlXlXlXbX1X X.X{.;X-X.X[..XnXCX2XCXDXkXbXaXfXkXkXkXkX",
"zXlXgXlXzXgXlXgXlXlXgXgXbXDXxXFXxXMX).~.Y.U.1.Q.pX:X&X:XyXrXSXCXbXvXbXgXlXlXgXlXgXlXlXDXlX2X2XsX2XdXlXlXdXlXkXdXfXfXfXCXkXkXkXCX",
"zXzXgXlXzXgXzXlXlXlXgXlXlXlXgXdX1X4XzXzXZXzXZXFXnXvXbXvXvXvXvXlXjXxXlXlXlXlXlXvXvXlXvXlXbXDXvXlXlXlXhXhXjXfXdXlXgXfXfXfXkXkXfXfX",
"zXgXdXgXgXdXzXlXfXlXlXgXlXxXjXxXlXlXgXlXxXjXlXlXvXlXxXxXlXlXAXAXlXxXlXlXlXlXlXvXlXvXlXlXkXlXlXkXlXfXfXkXkXfXdXdXgXfXfXfXsXCXaXZX",
"zX1X1X<XdXdXgXlXCXgXgXlXlXgXxXjXlXCXlXzXlXlXlXlXlXlXlXlXxXlXlXlXxXlXlXlXCXlXlXlXlXkXlXkXlXkXkXkXkXkXlXfXlXfXfXhXkXfXfXsXfXaXfXfX",
"ZX1X1XgXgX<XgXgXlXgXlXlXgXgXgXlXxXjXxXxXjXlXlXAXlXAXAXlXlXCXCXlXCXxXxXlXlXvXlXlXgXkXlXfXlXkXDXkXlXlXlXkXgXfXkXfXfXfXfXfXfXkXhXfX",
"gXgXgXgX1XgXCXfXgXlXgXCXCXgXgXCXxXzXjXzXlXAXlXCXAXCXlXlXlXlXxXAXxXlXlXlXlXxXlXlXlXCXfXCXCXkXkXgXkXhXkXfXfXfXgXfXfXfXkXkXsXsXsXfX",
"gXgXgX1XgXCXCX<XCXlXCXgXZXlXlXgXxXjXxXjXxXxXxXAXlXCXCXxXZXlXCXlXlXxXjXlXlXjXlXlXlXkXgXkXfXkXCXkXkXhXfXkXhXkXfXfXfXfXsXsXsXsXkXlX",
"ZXgX1X1XgXfXgXfXfXgXgXlXgXlXlXlXjXxXlXzXgXjXlXlXxXlXxXCXlXlXlXlXxXlXxXlXlXlXlXAXgXCXkXlXfXlXgXkXgXlXfXlXkXkXfXfXfXfXsXsXsXsXsXfX",
"zXdXgXgX<XgXgXCXgXgXlXlXgXlXlXlXjXxXxXxXlXxXlXZXlXZXCXlXAXlXAXzXxXjXlXlXlXlXgXlXgXlXfXfXkXfXfXlXlXfXfXfXsXgXfXgXfXkXhXfXsXsXaXfX",
"ZXdXdX1XCXgXgX1XfX<X1XfXfXgXgXgXgXdXdXjXgXlXlXlXlXlXlXlXgXgXfXgXgXgXgXgXgXgXgXfXfXgXgXfXfXfXfXgXfXsXsXsXsXsX2XsXfXCXoXsXsXsXsXsX",
"ZXgX1XgXgX1X1XfXgX1X1XdXdXfXgXlXdXzXzXdXdXzXgX1XgXgXgXgXdXdXdXdXgXdXdXsXfX<XsXfXfX2XfX<X2XsXfX2XsXsXoXkX2XsXfXsXfX2XsXsXaXsX2XsX",
"ZX1X<X1XfX<X1X<X<X<XfXdXdXgXlXgXdXzXdXdXdXzXgXgX<X1XfX<XfX<XdXfXgXdX<X1XdXfX<XfXfXfX2XsX<XfX2XdX<X<XsXdXfXdX2X2X2XfX2X<X<XsXsX2X"
};
